<svg width="112" height="121" viewBox="0 0 112 121" fill="none" xmlns="http://www.w3.org/2000/svg">
    <path d="M33.187 17.3329L19.3779 62.4648L55.5296 95.4665L91.6814 62.4648L77.8722 17.3329H33.187Z" fill="#00DEBA"/>
    <path d="M37.7693 24.1874L26.7944 60.0542L55.5294 86.2861L84.2644 60.0542L73.2895 24.1874H37.7693Z" fill="#00D1AF"/>
    <path d="M55.5292 120.428V95.4665L19.3775 62.4648L0 69.7352L55.5292 120.428Z" fill="#00BD9F"/>
    <path d="M55.5293 120.428V95.4665L91.681 62.4648L111.051 69.7352L55.5293 120.428Z" fill="#00A686"/>
    <path d="M91.6807 62.4648L77.8716 17.3329L89.8477 0.427704L111.05 69.7352L91.6807 62.4648Z" fill="#00BD9F"/>
    <path d="M19.3775 62.4648L33.1866 17.3329L21.2105 0.427704L0 69.7352L19.3775 62.4648Z" fill="#00D6B3"/>
    <path d="M21.2104 0.427704H89.8479L77.8717 17.3329H33.1866L21.2104 0.427704Z" fill="#00EDC7"/>
    <path d="M35.7282 16.3394L47.5657 18.881L35.7282 21.4225L33.1866 33.2677L30.6451 21.4225L18.8076 18.881L30.6451 16.3394L33.1866 4.50191L35.7282 16.3394Z" fill="white"/>
    <path d="M92.9364 63.751L98.782 65.0064L92.9364 66.2617L91.6811 72.1073L90.4257 66.2617L84.5801 65.0064L90.4257 63.751L91.6811 57.9054L92.9364 63.751Z" fill="white"/>
</svg>
