<svg width="107" height="121" viewBox="0 0 107 121" fill="none" xmlns="http://www.w3.org/2000/svg">
    <path d="M77.7947 55.804L53.0722 120.417L28.3496 55.804H77.7947Z" fill="#ACE4FF"/>
    <path d="M28.3496 55.804L26.5361 85.494L53.0722 120.417L28.3496 55.804Z" fill="#7ECCF2"/>
    <path d="M28.3496 55.804L0 50.5714L26.5361 85.494L28.3496 55.804Z" fill="#ACE4FF"/>
    <path d="M77.7948 55.804L79.6083 85.494L53.0723 120.417L77.7948 55.804Z" fill="#7ECCF2"/>
    <path d="M77.7949 55.804L106.144 50.5714L79.6084 85.494L77.7949 55.804Z" fill="#ACE4FF"/>
    <path d="M28.3496 55.804L20.2712 0.416626L0 50.5713L28.3496 55.804Z" fill="#D1F0FF"/>
    <path d="M77.7949 55.804L85.8733 0.416641L106.144 50.5714L77.7949 55.804Z" fill="#D1F0FF"/>
    <path d="M77.7947 55.804L53.0793 24.6303L28.3496 55.804H77.7947Z" fill="#7ECCF2"/>
    <path d="M53.0796 24.6303L20.2715 0.416641L28.3499 55.804L53.0796 24.6303Z" fill="#ACE4FF"/>
    <path d="M53.0796 24.6303L85.8734 0.416641L77.795 55.804L53.0796 24.6303Z" fill="#ACE4FF"/>
    <path d="M85.8733 0.416641H20.2715L53.0796 24.6303L85.8733 0.416641Z" fill="#D1F0FF"/>
    <path d="M30.7153 53.4386L41.7326 55.804L30.7153 58.1694L28.3498 69.1867L25.9844 58.1694L14.96 55.804L25.9844 53.4386L28.3427 42.4213L30.7153 53.4386Z" fill="white"/>
</svg>
