<svg width="79" height="121" viewBox="0 0 79 121" fill="none" xmlns="http://www.w3.org/2000/svg">
    <path d="M21.4404 66.511L39.1865 120.417L56.9327 66.511H21.4404Z" fill="#FFD940"/>
    <path d="M78.3736 60.4136L39.1865 120.417L56.9327 66.511L78.3736 60.4136Z" fill="#F2C61A"/>
    <path d="M78.3736 60.4136L39.1865 0.416626L56.9327 66.511L78.3736 60.4136Z" fill="#FFDE59"/>
    <path d="M21.4405 66.511L39.1866 120.417L-0.000488281 60.4136L21.4405 66.511Z" fill="#FFE061"/>
    <path d="M21.4404 66.511L39.1865 0.416626L56.9327 66.511H21.4404Z" fill="#FFE887"/>
    <path d="M21.441 66.511L39.1871 0.416656L0 60.4136L21.441 66.511Z" fill="#FFEFAB"/>
    <path d="M24.8806 64.5088L34.2056 66.511L24.8806 68.5131L22.8784 77.8381L20.8763 68.5131L11.5513 66.511L20.8763 64.5088L22.8784 55.1838L24.8806 64.5088Z" fill="white"/>
</svg>
