<svg width="120" height="115" viewBox="0 0 120 115" fill="none" xmlns="http://www.w3.org/2000/svg">
    <path d="M95.4135 42.3665L60.0002 114.417L24.5869 42.3665H95.4135Z" fill="#ACE4FF"/>
    <path d="M24.5867 42.3665L0 34.7652L60 114.417L24.5867 42.3665Z" fill="#D1F0FF"/>
    <path d="M95.4133 42.3665L120 34.7652L60 114.417L95.4133 42.3665Z" fill="#7ECCF2"/>
    <path d="M81.7344 0.300049H60.0002H38.266L24.5869 42.3665L60.0002 42.3584H95.4135L81.7344 0.300049Z" fill="#D1F0FF"/>
    <path d="M95.4135 42.3584L120 34.7652L97.0828 0.300049H81.7344L95.4135 42.3584Z" fill="#ACE4FF"/>
    <path d="M24.5867 42.3664L38.2658 0.299988H22.9174L0 34.7651L24.5867 42.3664Z" fill="#ACE4FF"/>
    <path d="M28.4196 39.6841L40.875 42.3665L28.4196 45.0407L25.7454 57.4961L23.0711 45.0407L10.6157 42.3583L23.0711 39.6841L25.7454 27.2287L28.4196 39.6841Z" fill="white"/>
</svg>
