<svg width="88" height="121" viewBox="0 0 88 121" fill="none" xmlns="http://www.w3.org/2000/svg">
    <path d="M19.6997 101.058L0 120.3V0.30011L19.6997 19.5417V101.058Z" fill="#DE6ECA"/>
    <path d="M87.3636 120.3H0L19.6997 101.058H67.6561L87.3636 120.3Z" fill="#C255AF"/>
    <path d="M87.3637 120.3L67.6562 101.058V19.5418L87.3637 0.300125V120.3Z" fill="#DE6ECA"/>
    <path d="M67.6561 19.5417H19.6997L0 0.30011H87.3636L67.6561 19.5417Z" fill="#F589E1"/>
    <path d="M67.6561 19.5418H19.6997V101.066H67.6561V19.5418Z" fill="#AD4A9C"/>
    <path d="M62.6866 23.4242H24.6616V97.1838H62.6866V23.4242Z" fill="#DE6ECA"/>
    <path d="M22.2623 20.8618L34.197 23.4242L22.2623 25.9867L19.6998 37.9214L17.1374 25.9867L5.20264 23.4242L17.1374 20.8618L19.6998 8.91927L22.2623 20.8618Z" fill="white"/>
    <path d="M68.9216 99.7928L74.8152 101.058L68.9216 102.332L67.6559 108.226L66.3902 102.332L60.4966 101.058L66.3902 99.7928L67.6559 93.8992L68.9216 99.7928Z" fill="white"/>
</svg>
