<svg width="91" height="121" viewBox="0 0 91 121" fill="none" xmlns="http://www.w3.org/2000/svg">
    <path d="M45.3059 120.3L33.9632 90.2511L13.3032 83.3318L45.3059 120.3Z" fill="#8BDA4B"/>
    <path d="M45.2144 120.3L56.5571 90.2511L77.217 83.3318L45.2144 120.3Z" fill="#539C17"/>
    <path d="M33.9634 90.2511H56.5573L45.2146 120.3L33.9634 90.2511Z" fill="#66BF1C"/>
    <path d="M0.000488281 44.4948L33.9633 90.2511L13.3033 83.3318L0.000488281 44.4948Z" fill="#9AED58"/>
    <path d="M56.5571 90.2511L77.2171 83.3318L90.435 44.3184L56.5571 90.2511Z" fill="#66BF1C"/>
    <path d="M33.9634 90.2511L45.3061 51.2377L56.5573 90.2511H33.9634Z" fill="#9AED58"/>
    <path d="M45.3057 51.2377L90.4348 44.3184L56.5569 90.2511L45.3057 51.2377Z" fill="#8BDA4B"/>
    <path d="M45.306 51.2377L33.9633 90.2511L0.000488281 44.4948L45.306 51.2377Z" fill="#8BDA4B"/>
    <path d="M45.3057 51.2377L71.846 12.4987L90.4348 44.3184L45.3057 51.2377Z" fill="#9AED58"/>
    <path d="M45.306 51.2377L18.4781 12.4987L0.000488281 44.4948L45.306 51.2377Z" fill="#9AED58"/>
    <path d="M18.478 12.4987H71.8463L45.3059 51.2377L18.478 12.4987Z" fill="#B1FF73"/>
    <path d="M21.889 10.3426L31.9315 12.4987L21.889 14.6549L19.7328 24.6974L17.5767 14.6549L7.53418 12.4987L17.5767 10.3426L19.7263 0.30011L21.889 10.3426Z" fill="white"/>
    <path d="M57.6224 89.1861L62.5816 90.2511L57.6224 91.3161L56.5574 96.2753L55.4924 91.3161L50.5332 90.2511L55.4924 89.1861L56.5574 84.2269L57.6224 89.1861Z" fill="white"/>
</svg>
