<svg width="120" height="121" viewBox="0 0 120 121" fill="none" xmlns="http://www.w3.org/2000/svg">
    <path d="M44.8453 96.8969L23.4033 75.4643V45.1358L44.8453 23.6938H75.1643L96.6063 45.1358V75.4643L75.1643 96.8969H44.8453Z" fill="#FF859E"/>
    <path d="M47.9982 89.2773L31.0229 72.302V48.2982L47.9982 31.3229H72.002L88.9773 48.2982V72.302L72.002 89.2773H47.9982Z" fill="#FF6988"/>
    <path d="M35.1519 120.3L44.8453 96.8969H75.1644L84.8578 120.3H35.1519Z" fill="#E01D46"/>
    <path d="M44.8452 96.8969L23.4032 75.4643L0 85.1484L35.1517 120.3L44.8452 96.8969Z" fill="#FF2150"/>
    <path d="M84.8575 120.3L75.1641 96.8969L96.606 75.4643L120 85.1484L84.8575 120.3Z" fill="#C70C33"/>
    <path d="M96.6064 75.4643V45.1358L120 35.4517V85.1484L96.6064 75.4643Z" fill="#E01D46"/>
    <path d="M23.4032 75.4643V45.1358L0 35.4517V85.1484L23.4032 75.4643Z" fill="#FF4D72"/>
    <path d="M96.606 45.1358L75.1641 23.6938L84.8575 0.300018L120 35.4518L96.606 45.1358Z" fill="#FF2150"/>
    <path d="M44.8453 23.6938L35.1519 0.300018H84.8578L75.1644 23.6938H44.8453Z" fill="#FF4D72"/>
    <path d="M23.4032 45.1358L44.8452 23.6938L35.1517 0.299988L0 35.4517L23.4032 45.1358Z" fill="#FF6384"/>
    <path d="M46.9282 22.3426L62.4302 25.6738L46.9282 29.0051L43.597 44.5071L40.2657 29.0051L24.7637 25.6738L40.2657 22.3426L43.597 6.84052L46.9282 22.3426Z" fill="white"/>
</svg>
