<svg width="64" height="64" viewBox="0 0 64 64" fill="none" xmlns="http://www.w3.org/2000/svg">
<rect width="64" height="64" fill="#F2EFFE"/>
<path opacity="0.2" d="M32 19C29.0826 19 26.2847 20.1589 24.2218 22.2218C22.1589 24.2847 21 27.0826 21 30C21 36.075 28 45 32 45C36 45 43 36.075 43 30C43 27.0826 41.8411 24.2847 39.7782 22.2218C37.7153 20.1589 34.9174 19 32 19ZM29 34C27.9391 34 26.9217 33.5786 26.1716 32.8284C25.4214 32.0783 25 31.0609 25 30C25 29.7348 25.1054 29.4804 25.2929 29.2929C25.4804 29.1054 25.7348 29 26 29C27.0609 29 28.0783 29.4214 28.8284 30.1716C29.5786 30.9217 30 31.9391 30 33C30 33.2652 29.8946 33.5196 29.7071 33.7071C29.5196 33.8946 29.2652 34 29 34ZM35 34C34.7348 34 34.4804 33.8946 34.2929 33.7071C34.1054 33.5196 34 33.2652 34 33C34 31.9391 34.4214 30.9217 35.1716 30.1716C35.9217 29.4214 36.9391 29 38 29C38.2652 29 38.5196 29.1054 38.7071 29.2929C38.8946 29.4804 39 29.7348 39 30C39 31.0609 38.5786 32.0783 37.8284 32.8284C37.0783 33.5786 36.0609 34 35 34Z" fill="#7A5AF8"/>
<path d="M32 18C28.8185 18.0036 25.7684 19.2691 23.5187 21.5187C21.2691 23.7684 20.0036 26.8185 20 30C20 33 21.57 36.8825 24.2013 40.375C26.8488 43.8937 29.7638 46 32 46C34.2362 46 37.1512 43.8988 39.7987 40.375C42.43 36.875 44 33 44 30C43.9964 26.8185 42.7309 23.7684 40.4813 21.5187C38.2316 19.2691 35.1815 18.0036 32 18ZM38.2013 39.1775C36.03 42.0612 33.5388 44 32 44C30.4612 44 27.97 42.0612 25.7987 39.1775C23.4562 36.0625 22 32.5463 22 30C22 27.3478 23.0536 24.8043 24.9289 22.9289C26.8043 21.0536 29.3478 20 32 20C34.6522 20 37.1957 21.0536 39.0711 22.9289C40.9464 24.8043 42 27.3478 42 30C42 32.5463 40.5438 36.0625 38.2013 39.1775ZM31 33C31 31.6739 30.4732 30.4021 29.5355 29.4645C28.5979 28.5268 27.3261 28 26 28C25.4696 28 24.9609 28.2107 24.5858 28.5858C24.2107 28.9609 24 29.4696 24 30C24 31.3261 24.5268 32.5979 25.4645 33.5355C26.4021 34.4732 27.6739 35 29 35C29.5304 35 30.0391 34.7893 30.4142 34.4142C30.7893 34.0391 31 33.5304 31 33ZM26 30C26.7956 30 27.5587 30.3161 28.1213 30.8787C28.6839 31.4413 29 32.2044 29 33C28.2044 33 27.4413 32.6839 26.8787 32.1213C26.3161 31.5587 26 30.7956 26 30ZM38 28C36.6739 28 35.4021 28.5268 34.4645 29.4645C33.5268 30.4021 33 31.6739 33 33C33 33.5304 33.2107 34.0391 33.5858 34.4142C33.9609 34.7893 34.4696 35 35 35C35.6566 35 36.3068 34.8707 36.9134 34.6194C37.52 34.3681 38.0712 33.9998 38.5355 33.5355C38.9998 33.0712 39.3681 32.52 39.6194 31.9134C39.8707 31.3068 40 30.6566 40 30C40 29.4696 39.7893 28.9609 39.4142 28.5858C39.0391 28.2107 38.5304 28 38 28ZM35 33C35 32.2044 35.3161 31.4413 35.8787 30.8787C36.4413 30.3161 37.2044 30 38 30C38 30.7956 37.6839 31.5587 37.1213 32.1213C36.5587 32.6839 35.7956 33 35 33ZM35 39C35 39.2652 34.8946 39.5196 34.7071 39.7071C34.5196 39.8946 34.2652 40 34 40H30C29.7348 40 29.4804 39.8946 29.2929 39.7071C29.1054 39.5196 29 39.2652 29 39C29 38.7348 29.1054 38.4804 29.2929 38.2929C29.4804 38.1054 29.7348 38 30 38H34C34.2652 38 34.5196 38.1054 34.7071 38.2929C34.8946 38.4804 35 38.7348 35 39Z" fill="#7A5AF8"/>
</svg>
