<svg width="64" height="64" viewBox="0 0 64 64" fill="none" xmlns="http://www.w3.org/2000/svg">
<rect width="64" height="64" fill="#F2EFFE"/>
<path opacity="0.2" d="M23.4955 23.5113C24.6064 22.3987 25.9257 21.516 27.378 20.9135C28.8302 20.311 30.387 20.0006 31.9592 20C31.9529 23.1741 30.6886 26.2163 28.4432 28.4598C26.1978 30.7033 23.1546 31.9651 19.9805 31.9688C19.9817 30.3972 20.2928 28.8413 20.8959 27.39C21.4991 25.9388 22.3824 24.6207 23.4955 23.5113ZM35.5155 35.5225C34.4023 36.6315 33.5189 37.9494 32.9159 39.4005C32.3129 40.8516 32.0023 42.4074 32.0017 43.9788C35.1752 43.9731 38.2173 42.7107 40.4622 40.4676C42.7072 38.2245 43.9722 35.1835 43.9805 32.01C42.408 32.0109 40.851 32.3216 39.3986 32.9243C37.9462 33.527 36.6267 34.4099 35.5155 35.5225Z" fill="#7A5AF8"/>
<path d="M41.1767 22.8075C39.3586 20.9895 37.0422 19.7514 34.5204 19.2498C31.9987 18.7482 29.3848 19.0057 27.0094 19.9896C24.634 20.9736 22.6037 22.6398 21.1752 24.7776C19.7468 26.9155 18.9844 29.4289 18.9844 32C18.9844 34.5711 19.7468 37.0846 21.1752 39.2224C22.6037 41.3602 24.634 43.0265 27.0094 44.0104C29.3848 44.9944 31.9987 45.2518 34.5204 44.7502C37.0422 44.2487 39.3586 43.0106 41.1767 41.1925C42.3929 39.9904 43.3584 38.5589 44.0174 36.981C44.6764 35.403 45.0158 33.71 45.0158 32C45.0158 30.29 44.6764 28.597 44.0174 27.019C43.3584 25.4411 42.3929 24.0096 41.1767 22.8075ZM24.1992 24.2213C25.9991 22.4188 28.371 21.3001 30.9067 21.0575C30.6623 23.5931 29.5386 25.9633 27.7304 27.7575C25.9338 29.5625 23.5631 30.6833 21.0279 30.9263C21.2726 28.3903 22.3941 26.0192 24.1992 24.2213ZM21.0217 32.935C24.0922 32.6898 26.974 31.3549 29.1467 29.1713C31.3317 26.9993 32.6676 24.1173 32.9129 21.0463C35.4981 21.2618 37.9233 22.3863 39.7581 24.2202C41.5929 26.054 42.7186 28.4787 42.9354 31.0638C39.8659 31.3151 36.9853 32.6481 34.8069 34.8251C32.6284 37.0022 31.2937 39.8819 31.0404 42.9513C28.4552 42.7357 26.03 41.6112 24.1952 39.7774C22.3604 37.9435 21.2347 35.5188 21.0179 32.9338L21.0217 32.935ZM39.7617 39.7788C37.9613 41.5806 35.5897 42.6993 33.0542 42.9425C33.3039 40.4089 34.4246 38.0404 36.2254 36.2408C38.0262 34.4411 40.3954 33.3219 42.9292 33.0738C42.6855 35.6092 41.5653 37.9803 39.7617 39.7788Z" fill="#7A5AF8"/>
</svg>
