<svg width="64" height="64" viewBox="0 0 64 64" fill="none" xmlns="http://www.w3.org/2000/svg">
<rect width="64" height="64" fill="#F2EFFE"/>
<path opacity="0.2" d="M33.2362 40.8913L35 45H29L30.7612 40.8913C25.8237 40.0225 22 34.1038 22 29C22 26.3478 23.0536 23.8043 24.9289 21.9289C26.8043 20.0536 29.3478 19 32 19C34.6522 19 37.1957 20.0536 39.0711 21.9289C40.9464 23.8043 42 26.3478 42 29C42 34.1038 38.1762 40.0225 33.2362 40.8913Z" fill="#7A5AF8"/>
<path d="M32 18C29.0836 18.0033 26.2877 19.1633 24.2255 21.2255C22.1633 23.2877 21.0033 26.0836 21 29C21 31.9288 22.175 35.1775 24.1412 37.6875C25.6512 39.6137 27.4538 40.9375 29.38 41.5737L28.0813 44.6063C28.0161 44.7583 27.9897 44.9242 28.0044 45.0889C28.0191 45.2537 28.0745 45.4123 28.1655 45.5504C28.2566 45.6885 28.3805 45.8019 28.5261 45.8803C28.6717 45.9588 28.8346 45.9999 29 46H35C35.1654 45.9999 35.3283 45.9588 35.4739 45.8803C35.6195 45.8019 35.7434 45.6885 35.8345 45.5504C35.9255 45.4123 35.9809 45.2537 35.9956 45.0889C36.0103 44.9242 35.9839 44.7583 35.9188 44.6063L34.625 41.5737C36.55 40.94 38.3538 39.6137 39.8638 37.6875C41.825 35.1775 43 31.9288 43 29C42.9967 26.0836 41.8367 23.2877 39.7745 21.2255C37.7123 19.1633 34.9164 18.0033 32 18ZM33.4837 44H30.5162L31.3837 41.9762C31.5887 41.9912 31.7938 42 32 42C32.2062 42 32.4112 41.9912 32.6162 41.9762L33.4837 44ZM38.2838 36.4538C36.4925 38.7413 34.2613 40 32 40C29.7387 40 27.5075 38.7413 25.7163 36.4538C24.015 34.2838 23 31.5 23 29C23 26.6131 23.9482 24.3239 25.636 22.636C27.3239 20.9482 29.6131 20 32 20C34.3869 20 36.6761 20.9482 38.364 22.636C40.0518 24.3239 41 26.6131 41 29C41 31.5 39.985 34.2838 38.2838 36.4538ZM38.1588 28.9862C38.1063 28.9948 38.0532 28.9994 38 29C37.7636 28.9997 37.535 28.9157 37.3547 28.7628C37.1743 28.6099 37.054 28.3981 37.015 28.165C36.8301 27.1244 36.3302 26.1657 35.5829 25.4184C34.8356 24.671 33.8768 24.1711 32.8363 23.9862C32.7058 23.9657 32.5806 23.9194 32.4681 23.8502C32.3556 23.781 32.2579 23.6902 32.1807 23.583C32.1035 23.4758 32.0483 23.3544 32.0183 23.2257C31.9883 23.0971 31.984 22.9638 32.0058 22.8335C32.0276 22.7032 32.075 22.5785 32.1453 22.4666C32.2155 22.3548 32.3073 22.2579 32.4151 22.1817C32.523 22.1055 32.645 22.0514 32.7739 22.0226C32.9028 21.9937 33.0362 21.9907 33.1663 22.0138C34.616 22.271 35.9517 22.9673 36.9929 24.0084C38.034 25.0495 38.7303 26.3853 38.9875 27.835C39.0091 27.9646 39.005 28.0972 38.9754 28.2252C38.9458 28.3532 38.8912 28.4742 38.8148 28.5811C38.7385 28.688 38.6417 28.7788 38.5302 28.8483C38.4187 28.9179 38.2946 28.9647 38.165 28.9862H38.1588Z" fill="#7A5AF8"/>
</svg>
