<svg width="64" height="64" viewBox="0 0 64 64" fill="none" xmlns="http://www.w3.org/2000/svg">
<rect width="64" height="64" fill="#F2EFFE"/>
<path opacity="0.2" d="M44 27.5V42.5C44 42.7652 43.8946 43.0196 43.7071 43.2071C43.5196 43.3946 43.2652 43.5 43 43.5H21C20.7348 43.5 20.4804 43.3946 20.2929 43.2071C20.1054 43.0196 20 42.7652 20 42.5V27.5C20 27.2348 20.1054 26.9804 20.2929 26.7929C20.4804 26.6054 20.7348 26.5 21 26.5H43C43.2652 26.5 43.5196 26.6054 43.7071 26.7929C43.8946 26.9804 44 27.2348 44 27.5Z" fill="#7A5AF8"/>
<path d="M43 25.5H38C38 23.9087 37.3679 22.3826 36.2426 21.2574C35.1174 20.1321 33.5913 19.5 32 19.5C30.4087 19.5 28.8826 20.1321 27.7574 21.2574C26.6321 22.3826 26 23.9087 26 25.5H21C20.4696 25.5 19.9609 25.7107 19.5858 26.0858C19.2107 26.4609 19 26.9696 19 27.5V42.5C19 43.0304 19.2107 43.5391 19.5858 43.9142C19.9609 44.2893 20.4696 44.5 21 44.5H43C43.5304 44.5 44.0391 44.2893 44.4142 43.9142C44.7893 43.5391 45 43.0304 45 42.5V27.5C45 26.9696 44.7893 26.4609 44.4142 26.0858C44.0391 25.7107 43.5304 25.5 43 25.5ZM32 21.5C33.0609 21.5 34.0783 21.9214 34.8284 22.6716C35.5786 23.4217 36 24.4391 36 25.5H28C28 24.4391 28.4214 23.4217 29.1716 22.6716C29.9217 21.9214 30.9391 21.5 32 21.5ZM43 42.5H21V27.5H43V42.5Z" fill="#7A5AF8"/>
</svg>
