<svg width="64" height="64" viewBox="0 0 64 64" fill="none" xmlns="http://www.w3.org/2000/svg">
<rect width="64" height="64" fill="#F2EFFE"/>
<path opacity="0.2" d="M44 32C44 34.3734 43.2962 36.6935 41.9776 38.6668C40.6591 40.6402 38.7849 42.1783 36.5922 43.0866C34.3995 43.9948 31.9867 44.2324 29.6589 43.7694C27.3312 43.3064 25.193 42.1635 23.5147 40.4853C21.8365 38.8071 20.6936 36.6689 20.2306 34.3411C19.7676 32.0133 20.0052 29.6005 20.9135 27.4078C21.8217 25.2151 23.3598 23.3409 25.3332 22.0224C27.3066 20.7038 29.6266 20 32 20C35.1826 20 38.2349 21.2643 40.4853 23.5147C42.7357 25.7652 44 28.8174 44 32Z" fill="#7A5AF8"/>
<path d="M32 19C28.5522 19 25.2456 20.3696 22.8076 22.8076C20.3696 25.2456 19 28.5522 19 32C19 35.4478 20.3696 38.7544 22.8076 41.1924C25.2456 43.6304 28.5522 45 32 45C34.6888 45 37.5125 44.19 39.5537 42.8337C39.6632 42.761 39.7572 42.6675 39.8304 42.5584C39.9037 42.4494 39.9547 42.327 39.9807 42.1982C40.0066 42.0694 40.0069 41.9368 39.9816 41.8078C39.9563 41.6789 39.9058 41.5563 39.8331 41.4469C39.7604 41.3375 39.6668 41.2435 39.5578 41.1702C39.4487 41.097 39.3263 41.0459 39.1975 41.02C39.0688 40.994 38.9361 40.9937 38.8072 41.019C38.6783 41.0443 38.5557 41.0948 38.4463 41.1675C36.75 42.2975 34.2762 43 32 43C29.8244 43 27.6977 42.3549 25.8887 41.1462C24.0798 39.9375 22.6699 38.2195 21.8373 36.2095C21.0048 34.1995 20.7869 31.9878 21.2114 29.854C21.6358 27.7202 22.6834 25.7602 24.2218 24.2218C25.7602 22.6834 27.7202 21.6358 29.854 21.2114C31.9878 20.7869 34.1995 21.0048 36.2095 21.8373C38.2195 22.6699 39.9375 24.0798 41.1462 25.8887C42.3549 27.6977 43 29.8244 43 32C43 35.3063 41.64 36 40.5 36C39.36 36 38 35.3063 38 32V27C38 26.7348 37.8946 26.4804 37.7071 26.2929C37.5196 26.1054 37.2652 26 37 26C36.7348 26 36.4804 26.1054 36.2929 26.2929C36.1054 26.4804 36 26.7348 36 27V27.5325C35.1026 26.7279 33.9837 26.2122 32.789 26.0527C31.5944 25.8931 30.3793 26.097 29.3022 26.6379C28.2251 27.1788 27.3359 28.0315 26.7503 29.0849C26.1648 30.1384 25.9101 31.3438 26.0194 32.5441C26.1287 33.7445 26.597 34.884 27.3633 35.8144C28.1295 36.7447 29.1582 37.4227 30.3153 37.7601C31.4724 38.0974 32.7043 38.0784 33.8505 37.7056C34.9967 37.3328 36.004 36.6235 36.7412 35.67C37.4912 37.17 38.785 38 40.5 38C43.3175 38 45 35.7575 45 32C44.9964 28.5533 43.6256 25.2488 41.1884 22.8116C38.7512 20.3744 35.4467 19.0036 32 19ZM32 36C31.2089 36 30.4355 35.7654 29.7777 35.3259C29.1199 34.8864 28.6072 34.2616 28.3045 33.5307C28.0017 32.7998 27.9225 31.9956 28.0769 31.2196C28.2312 30.4437 28.6122 29.731 29.1716 29.1716C29.731 28.6122 30.4437 28.2312 31.2196 28.0769C31.9956 27.9225 32.7998 28.0017 33.5307 28.3045C34.2616 28.6072 34.8864 29.1199 35.3259 29.7777C35.7654 30.4355 36 31.2089 36 32C36 33.0609 35.5786 34.0783 34.8284 34.8284C34.0783 35.5786 33.0609 36 32 36Z" fill="#7A5AF8"/>
</svg>
