<svg width="64" height="64" viewBox="0 0 64 64" fill="none" xmlns="http://www.w3.org/2000/svg">
<rect width="64" height="64" fill="#F2EFFE"/>
<path opacity="0.2" d="M45 37.0014V40.0014C45 40.2666 44.8946 40.521 44.7071 40.7085C44.5196 40.8961 44.2652 41.0014 44 41.0014H20C19.7348 41.0014 19.4804 40.8961 19.2929 40.7085C19.1054 40.521 19 40.2666 19 40.0014V37.1427C19 29.9577 24.7687 24.0264 31.9537 24.0014C33.6648 23.9953 35.3603 24.3271 36.9428 24.9777C38.5254 25.6283 39.964 26.5849 41.1761 27.7926C42.3881 29.0004 43.3498 30.4356 44.006 32.0158C44.6622 33.5961 45 35.2903 45 37.0014Z" fill="#7A5AF8"/>
<path d="M38 35.5015C38 35.7981 37.912 36.0881 37.7472 36.3348C37.5824 36.5815 37.3481 36.7738 37.074 36.8873C36.7999 37.0008 36.4983 37.0305 36.2074 36.9726C35.9164 36.9148 35.6491 36.7719 35.4393 36.5621C35.2296 36.3523 35.0867 36.0851 35.0288 35.7941C34.9709 35.5031 35.0007 35.2015 35.1142 34.9274C35.2277 34.6534 35.42 34.4191 35.6666 34.2543C35.9133 34.0894 36.2033 34.0015 36.5 34.0015C36.8978 34.0015 37.2794 34.1595 37.5607 34.4408C37.842 34.7221 38 35.1036 38 35.5015ZM27.5 34.0015C27.2033 34.0015 26.9133 34.0894 26.6667 34.2543C26.42 34.4191 26.2277 34.6534 26.1142 34.9274C26.0007 35.2015 25.9709 35.5031 26.0288 35.7941C26.0867 36.0851 26.2296 36.3523 26.4393 36.5621C26.6491 36.7719 26.9164 36.9148 27.2074 36.9726C27.4983 37.0305 27.7999 37.0008 28.074 36.8873C28.3481 36.7738 28.5824 36.5815 28.7472 36.3348C28.912 36.0881 29 35.7981 29 35.5015C29 35.1036 28.842 34.7221 28.5607 34.4408C28.2794 34.1595 27.8978 34.0015 27.5 34.0015ZM46 37.0015V40.0015C46 40.5319 45.7893 41.0406 45.4142 41.4157C45.0391 41.7908 44.5304 42.0015 44 42.0015H20C19.4696 42.0015 18.9609 41.7908 18.5858 41.4157C18.2107 41.0406 18 40.5319 18 40.0015V37.1427C17.9982 35.215 18.3897 33.3072 19.1506 31.5359C19.9114 29.7647 21.0256 28.1673 22.425 26.8415L19.2925 23.709C19.1049 23.5213 18.9995 23.2668 18.9995 23.0015C18.9995 22.7361 19.1049 22.4816 19.2925 22.294C19.4801 22.1063 19.7346 22.0009 20 22.0009C20.2654 22.0009 20.5199 22.1063 20.7075 22.294L23.9775 25.564C26.3254 23.9005 29.1309 23.0052 32.0083 23.0011C34.8857 22.9971 37.6938 23.8846 40.0463 25.5415L43.2963 22.2915C43.4839 22.1038 43.7384 21.9984 44.0038 21.9984C44.2691 21.9984 44.5236 22.1038 44.7113 22.2915C44.8989 22.4791 45.0043 22.7336 45.0043 22.999C45.0043 23.2643 44.8989 23.5188 44.7113 23.7065L41.6025 26.814C41.6963 26.9027 41.79 26.9927 41.8825 27.0852C43.1918 28.3827 44.23 29.9276 44.9369 31.6299C45.6438 33.3323 46.0051 35.1582 46 37.0015ZM44 37.0015C44 33.8189 42.7357 30.7666 40.4853 28.5162C38.2348 26.2658 35.1826 25.0015 32 25.0015H31.9575C25.3638 25.024 20 30.4702 20 37.1427V40.0015H44V37.0015Z" fill="#7A5AF8"/>
</svg>
