<svg width="64" height="64" viewBox="0 0 64 64" fill="none" xmlns="http://www.w3.org/2000/svg">
<rect width="64" height="64" rx="8" fill="#F2EFFE"/>
<path opacity="0.2" d="M30.5 41C36.299 41 41 36.299 41 30.5C41 24.701 36.299 20 30.5 20C24.701 20 20 24.701 20 30.5C20 36.299 24.701 41 30.5 41Z" fill="#7A5AF8"/>
<path d="M30.5 41C36.299 41 41 36.299 41 30.5C41 24.701 36.299 20 30.5 20C24.701 20 20 24.701 20 30.5C20 36.299 24.701 41 30.5 41Z" stroke="#7A5AF8" stroke-width="2" stroke-linecap="round" stroke-linejoin="round"/>
<path d="M37.9233 37.9252L43.9984 44.0002" stroke="#7A5AF8" stroke-width="2" stroke-linecap="round" stroke-linejoin="round"/>
</svg>
