<svg width="64" height="64" viewBox="0 0 64 64" fill="none" xmlns="http://www.w3.org/2000/svg">
<rect width="64" height="64" fill="#F2EFFE"/>
<path opacity="0.2" d="M44.4985 24.4985L42.9785 32.856C42.8948 33.3169 42.652 33.7337 42.2925 34.0339C41.9329 34.334 41.4794 34.4985 41.011 34.4985H25.3173L23.4985 24.4985H44.4985Z" fill="#7A5AF8"/>
<path d="M45.266 23.8573C45.1722 23.745 45.0548 23.6546 44.9222 23.5926C44.7895 23.5306 44.6449 23.4985 44.4985 23.4985H24.3335L23.7223 20.141C23.6386 19.6802 23.3958 19.2634 23.0362 18.9632C22.6767 18.6631 22.2232 18.4986 21.7548 18.4985H19.4985C19.2333 18.4985 18.979 18.6039 18.7914 18.7914C18.6039 18.979 18.4985 19.2333 18.4985 19.4985C18.4985 19.7638 18.6039 20.0181 18.7914 20.2056C18.979 20.3932 19.2333 20.4985 19.4985 20.4985H21.7485L24.9435 38.0348C25.0376 38.5549 25.2675 39.0408 25.6098 39.4435C25.1373 39.8848 24.7963 40.4483 24.6246 41.0715C24.4529 41.6948 24.4571 42.3534 24.6368 42.9744C24.8165 43.5954 25.1648 44.1544 25.6428 44.5896C26.1209 45.0248 26.7101 45.3191 27.3452 45.4398C27.9803 45.5605 28.6365 45.503 29.2408 45.2736C29.8452 45.0442 30.3743 44.6518 30.7693 44.1401C31.1644 43.6284 31.41 43.0173 31.4789 42.3745C31.5478 41.7317 31.4374 41.0824 31.1598 40.4985H36.8373C36.6136 40.9669 36.4978 41.4795 36.4985 41.9985C36.4985 42.6908 36.7038 43.3675 37.0884 43.943C37.473 44.5186 38.0196 44.9672 38.6591 45.2321C39.2987 45.497 40.0024 45.5663 40.6814 45.4313C41.3603 45.2962 41.9839 44.9629 42.4734 44.4734C42.9629 43.9839 43.2962 43.3603 43.4313 42.6814C43.5663 42.0024 43.497 41.2987 43.2321 40.6591C42.9672 40.0196 42.5186 39.473 41.943 39.0884C41.3675 38.7038 40.6908 38.4985 39.9985 38.4985H27.8948C27.6606 38.4985 27.4339 38.4163 27.2541 38.2662C27.0743 38.1161 26.9529 37.9077 26.911 37.6773L26.5148 35.4985H41.0148C41.7173 35.4984 42.3976 35.2518 42.9369 34.8015C43.4762 34.3513 43.8405 33.726 43.966 33.0348L45.486 24.6773C45.5118 24.5328 45.5054 24.3845 45.4674 24.2428C45.4294 24.1011 45.3606 23.9695 45.266 23.8573ZM29.4985 41.9985C29.4985 42.2952 29.4106 42.5852 29.2457 42.8319C29.0809 43.0786 28.8466 43.2708 28.5726 43.3844C28.2985 43.4979 27.9969 43.5276 27.7059 43.4697C27.4149 43.4118 27.1477 43.269 26.9379 43.0592C26.7281 42.8494 26.5852 42.5821 26.5274 42.2912C26.4695 42.0002 26.4992 41.6986 26.6127 41.4245C26.7262 41.1504 26.9185 40.9162 27.1652 40.7513C27.4119 40.5865 27.7019 40.4985 27.9985 40.4985C28.3964 40.4985 28.7779 40.6566 29.0592 40.9379C29.3405 41.2192 29.4985 41.6007 29.4985 41.9985ZM41.4985 41.9985C41.4985 42.2952 41.4106 42.5852 41.2457 42.8319C41.0809 43.0786 40.8466 43.2708 40.5726 43.3844C40.2985 43.4979 39.9969 43.5276 39.7059 43.4697C39.4149 43.4118 39.1477 43.269 38.9379 43.0592C38.7281 42.8494 38.5852 42.5821 38.5274 42.2912C38.4695 42.0002 38.4992 41.6986 38.6127 41.4245C38.7262 41.1504 38.9185 40.9162 39.1652 40.7513C39.4119 40.5865 39.7019 40.4985 39.9985 40.4985C40.3964 40.4985 40.7779 40.6566 41.0592 40.9379C41.3405 41.2192 41.4985 41.6007 41.4985 41.9985ZM41.9985 32.6773C41.9566 32.9083 41.8346 33.1172 41.6541 33.2674C41.4735 33.4176 41.2459 33.4994 41.011 33.4985H26.151L24.6973 25.4985H43.2998L41.9985 32.6773Z" fill="#7A5AF8"/>
</svg>
