<svg width="64" height="64" viewBox="0 0 64 64" fill="none" xmlns="http://www.w3.org/2000/svg">
<rect width="64" height="64" fill="#F2EFFE"/>
<path opacity="0.2" d="M44 32C44 34.3734 43.2962 36.6935 41.9776 38.6668C40.6591 40.6402 38.7849 42.1783 36.5922 43.0866C34.3995 43.9948 31.9867 44.2324 29.6589 43.7694C27.3312 43.3064 25.193 42.1635 23.5147 40.4853C21.8365 38.8071 20.6936 36.6689 20.2306 34.3411C19.7676 32.0133 20.0052 29.6005 20.9135 27.4078C21.8217 25.2151 23.3598 23.3409 25.3332 22.0224C27.3066 20.7038 29.6266 20 32 20C35.1826 20 38.2349 21.2643 40.4853 23.5147C42.7357 25.7652 44 28.8174 44 32Z" fill="#7A5AF8"/>
<path d="M32 19C29.4288 19 26.9154 19.7624 24.7776 21.1909C22.6398 22.6194 20.9735 24.6497 19.9896 27.0251C19.0056 29.4006 18.7482 32.0144 19.2498 34.5362C19.7514 37.0579 20.9895 39.3743 22.8076 41.1924C24.6257 43.0105 26.9421 44.2486 29.4638 44.7502C31.9856 45.2518 34.5995 44.9944 36.9749 44.0104C39.3503 43.0265 41.3807 41.3603 42.8091 39.2224C44.2376 37.0846 45 34.5712 45 32C44.9964 28.5533 43.6256 25.2488 41.1884 22.8116C38.7512 20.3744 35.4467 19.0036 32 19ZM32 43C29.8244 43 27.6977 42.3549 25.8887 41.1462C24.0798 39.9375 22.6699 38.2195 21.8373 36.2095C21.0048 34.1995 20.7869 31.9878 21.2114 29.854C21.6358 27.7202 22.6835 25.7602 24.2218 24.2218C25.7602 22.6834 27.7202 21.6358 29.854 21.2114C31.9878 20.7869 34.1995 21.0048 36.2095 21.8373C38.2195 22.6699 39.9375 24.0798 41.1462 25.8887C42.3549 27.6977 43 29.8244 43 32C42.9967 34.9164 41.8367 37.7123 39.7745 39.7745C37.7123 41.8367 34.9164 42.9967 32 43ZM36.7075 27.2925C36.8005 27.3854 36.8742 27.4957 36.9246 27.6171C36.9749 27.7385 37.0008 27.8686 37.0008 28C37.0008 28.1314 36.9749 28.2615 36.9246 28.3829C36.8742 28.5043 36.8005 28.6146 36.7075 28.7075L30.4138 35H34C34.2652 35 34.5196 35.1054 34.7071 35.2929C34.8946 35.4804 35 35.7348 35 36C35 36.2652 34.8946 36.5196 34.7071 36.7071C34.5196 36.8946 34.2652 37 34 37H28C27.7348 37 27.4804 36.8946 27.2929 36.7071C27.1054 36.5196 27 36.2652 27 36V30C27 29.7348 27.1054 29.4804 27.2929 29.2929C27.4804 29.1054 27.7348 29 28 29C28.2652 29 28.5196 29.1054 28.7071 29.2929C28.8946 29.4804 29 29.7348 29 30V33.5863L35.2925 27.2925C35.3854 27.1995 35.4957 27.1258 35.6171 27.0754C35.7385 27.0251 35.8686 26.9992 36 26.9992C36.1314 26.9992 36.2615 27.0251 36.3829 27.0754C36.5043 27.1258 36.6146 27.1995 36.7075 27.2925Z" fill="#7A5AF8"/>
</svg>
