<svg width="64" height="64" viewBox="0 0 64 64" fill="none" xmlns="http://www.w3.org/2000/svg">
<rect width="64" height="64" fill="#F2EFFE"/>
<path opacity="0.2" d="M43.7068 29.2923L36.5481 36.4748C37.9806 39.341 36.3331 42.2073 35.2843 43.5998C35.1981 43.713 35.0886 43.8065 34.9634 43.8741C34.8381 43.9416 34.6998 43.9816 34.5578 43.9914C34.4158 44.0013 34.2734 43.9807 34.14 43.931C34.0066 43.8813 33.8853 43.8038 33.7843 43.7035L20.2918 30.2198C20.1922 30.1203 20.1148 30.001 20.0645 29.8695C20.0142 29.738 19.9923 29.5975 20.0001 29.4569C20.0079 29.3164 20.0452 29.1791 20.1097 29.054C20.1742 28.9289 20.2644 28.8189 20.3743 28.731C24.0806 25.741 27.5493 27.481 27.5493 27.481L34.7081 20.2985C34.8956 20.1111 35.1498 20.0059 35.4149 20.0059C35.68 20.0059 35.9343 20.1111 36.1218 20.2985L43.7068 27.8748C43.8002 27.9677 43.8742 28.0781 43.9248 28.1998C43.9753 28.3214 44.0014 28.4518 44.0014 28.5835C44.0014 28.7152 43.9753 28.8457 43.9248 28.9673C43.8742 29.0889 43.8002 29.1994 43.7068 29.2923Z" fill="#7A5AF8"/>
<path d="M44.4145 27.1711L36.8282 19.5861C36.6425 19.4003 36.422 19.2529 36.1793 19.1524C35.9367 19.0519 35.6765 19.0001 35.4139 19.0001C35.1512 19.0001 34.8911 19.0519 34.6484 19.1524C34.4057 19.2529 34.1852 19.4003 33.9995 19.5861L27.2957 26.3111C25.9632 25.8936 22.9207 25.3898 19.7457 27.9536C19.5269 28.1295 19.3476 28.3496 19.2194 28.5995C19.0913 28.8494 19.0172 29.1234 19.002 29.4038C18.9867 29.6843 19.0308 29.9647 19.1311 30.227C19.2315 30.4893 19.386 30.7275 19.5845 30.9261L25.6245 36.9636L20.292 42.2923C20.1043 42.48 19.9989 42.7345 19.9989 42.9998C19.9989 43.2652 20.1043 43.5197 20.292 43.7073C20.4796 43.895 20.7341 44.0004 20.9995 44.0004C21.2648 44.0004 21.5193 43.895 21.707 43.7073L27.0357 38.3748L33.072 44.4111C33.2576 44.5974 33.4781 44.7453 33.7209 44.8464C33.9637 44.9474 34.224 44.9995 34.487 44.9998H34.6282C34.9133 44.9801 35.1908 44.8992 35.4419 44.7627C35.693 44.6261 35.9117 44.4371 36.0832 44.2086C38.5382 40.9461 38.302 38.2936 37.732 36.7086L44.4157 29.9998C44.6014 29.814 44.7487 29.5935 44.8491 29.3507C44.9495 29.108 45.0012 28.8479 45.0011 28.5852C45.0009 28.3225 44.9491 28.0624 44.8484 27.8198C44.7478 27.5771 44.6003 27.3567 44.4145 27.1711ZM42.9995 28.5861L35.8407 35.7686C35.6929 35.917 35.5954 36.108 35.562 36.3148C35.5286 36.5216 35.5609 36.7337 35.6545 36.9211C36.837 39.2873 35.4295 41.7448 34.487 42.9986L20.9995 29.5098C22.5095 28.2923 23.9545 27.9711 25.0595 27.9711C25.7606 27.9615 26.456 28.099 27.1007 28.3748C27.2888 28.469 27.5018 28.5014 27.7094 28.4675C27.917 28.4336 28.1086 28.3351 28.257 28.1861L35.4145 20.9998L42.9995 28.5848V28.5861Z" fill="#7A5AF8"/>
</svg>
