<svg width="64" height="64" viewBox="0 0 64 64" fill="none" xmlns="http://www.w3.org/2000/svg">
<rect width="64" height="64" fill="#F2EFFE"/>
<path opacity="0.2" d="M46 32.5C46 33.5609 45.5786 34.5783 44.8284 35.3284C44.0783 36.0786 43.0609 36.5 42 36.5V41.5C42 41.7652 41.8946 42.0196 41.7071 42.2071C41.5196 42.3946 41.2652 42.5 41 42.5H23C22.7348 42.5 22.4804 42.3946 22.2929 42.2071C22.1054 42.0196 22 41.7652 22 41.5V36.5C20.9391 36.5 19.9217 36.0786 19.1716 35.3284C18.4214 34.5783 18 33.5609 18 32.5C18 31.4391 18.4214 30.4217 19.1716 29.6716C19.9217 28.9214 20.9391 28.5 22 28.5V25.5C22 24.4391 22.4214 23.4217 23.1716 22.6716C23.9217 21.9214 24.9391 21.5 26 21.5H38C39.0609 21.5 40.0783 21.9214 40.8284 22.6716C41.5786 23.4217 42 24.4391 42 25.5V28.5C43.0609 28.5 44.0783 28.9214 44.8284 29.6716C45.5786 30.4217 46 31.4391 46 32.5Z" fill="#7A5AF8"/>
<path d="M43.0001 27.6V25.5C43.0001 24.1739 42.4733 22.9021 41.5357 21.9645C40.598 21.0268 39.3262 20.5 38.0001 20.5H26.0001C24.674 20.5 23.4023 21.0268 22.4646 21.9645C21.5269 22.9021 21.0001 24.1739 21.0001 25.5V27.6C19.8698 27.8295 18.8537 28.4427 18.1238 29.3357C17.3938 30.2288 16.9951 31.3466 16.9951 32.5C16.9951 33.6534 17.3938 34.7712 18.1238 35.6643C18.8537 36.5573 19.8698 37.1705 21.0001 37.4V41.5C21.0001 42.0304 21.2108 42.5391 21.5859 42.9142C21.961 43.2893 22.4697 43.5 23.0001 43.5H41.0001C41.5306 43.5 42.0393 43.2893 42.4143 42.9142C42.7894 42.5391 43.0001 42.0304 43.0001 41.5V37.4C44.1304 37.1705 45.1466 36.5573 45.8765 35.6643C46.6064 34.7712 47.0051 33.6534 47.0051 32.5C47.0051 31.3466 46.6064 30.2288 45.8765 29.3357C45.1466 28.4427 44.1304 27.8295 43.0001 27.6ZM26.0001 22.5H38.0001C38.7958 22.5 39.5588 22.8161 40.1214 23.3787C40.6841 23.9413 41.0001 24.7044 41.0001 25.5V27.6C39.8715 27.8321 38.8574 28.4461 38.1288 29.3387C37.4002 30.2313 37.0015 31.3478 37.0001 32.5H27.0001C26.9987 31.3478 26.6001 30.2313 25.8715 29.3387C25.1428 28.4461 24.1287 27.8321 23.0001 27.6V25.5C23.0001 24.7044 23.3162 23.9413 23.8788 23.3787C24.4414 22.8161 25.2045 22.5 26.0001 22.5ZM42.0489 35.5H42.0001C41.7349 35.5 41.4806 35.6054 41.293 35.7929C41.1055 35.9804 41.0001 36.2348 41.0001 36.5V41.5H23.0001V36.5C23.0001 36.2348 22.8948 35.9804 22.7072 35.7929C22.5197 35.6054 22.2653 35.5 22.0001 35.5H21.9514C21.3602 35.4904 20.7851 35.3063 20.2982 34.9709C19.8113 34.6355 19.4343 34.1636 19.2147 33.6147C18.9951 33.0657 18.9426 32.4641 19.0638 31.8854C19.185 31.3067 19.4745 30.7767 19.896 30.362C20.3174 29.9474 20.852 29.6664 21.4326 29.5546C22.0131 29.4427 22.6138 29.5049 23.1592 29.7333C23.7045 29.9618 24.1702 30.3462 24.4977 30.8385C24.8253 31.3307 25.0001 31.9087 25.0001 32.5V37.5C25.0001 37.7652 25.1055 38.0196 25.293 38.2071C25.4806 38.3946 25.7349 38.5 26.0001 38.5C26.2653 38.5 26.5197 38.3946 26.7072 38.2071C26.8948 38.0196 27.0001 37.7652 27.0001 37.5V34.5H37.0001V37.5C37.0001 37.7652 37.1055 38.0196 37.293 38.2071C37.4806 38.3946 37.7349 38.5 38.0001 38.5C38.2653 38.5 38.5197 38.3946 38.7072 38.2071C38.8948 38.0196 39.0001 37.7652 39.0001 37.5V32.5C39.0002 31.9087 39.175 31.3307 39.5025 30.8385C39.8301 30.3462 40.2958 29.9618 40.8411 29.7333C41.3864 29.5049 41.9871 29.4427 42.5677 29.5546C43.1483 29.6664 43.6828 29.9474 44.1043 30.362C44.5257 30.7767 44.8152 31.3067 44.9364 31.8854C45.0576 32.4641 45.0051 33.0657 44.7855 33.6147C44.5659 34.1636 44.189 34.6355 43.7021 34.9709C43.2152 35.3063 42.6401 35.4904 42.0489 35.5Z" fill="#7A5AF8"/>
</svg>
