<svg width="64" height="64" viewBox="0 0 64 64" fill="none" xmlns="http://www.w3.org/2000/svg">
<rect width="64" height="64" fill="#F2EFFE"/>
<path opacity="0.2" d="M44.0018 39.5975C41.9031 38.1563 41.0018 35.7388 41.0018 33C41.0018 30.7125 42.4618 28.6488 44.0018 27.19C42.5681 25.8325 40.1268 25 38.0018 25C36.1843 24.9958 34.42 25.6133 33.0018 26.75C31.6132 25.6366 29.8916 25.0205 28.1118 25C23.5018 24.9375 19.8843 28.7875 20.0018 33.3988C20.052 35.3756 20.4938 37.3228 21.3016 39.1277C22.1095 40.9326 23.2673 42.5594 24.7081 43.9138C25.4508 44.6123 26.4322 45.0009 27.4518 45H38.4143C38.9588 45.0022 39.4979 44.8924 39.998 44.6774C40.4982 44.4623 40.9488 44.1467 41.3218 43.75C43.3031 41.625 44.0018 39.6 44.0018 39.6V39.5975Z" fill="#7A5AF8"/>
<path d="M44.9142 39.1988C44.8392 39.0274 44.7181 38.8802 44.5642 38.7738C42.443 37.3163 42.0017 34.83 42.0017 33C42.0017 30.7913 43.6855 28.8675 44.6892 27.9163C44.788 27.8228 44.8666 27.7102 44.9204 27.5853C44.9741 27.4605 45.0018 27.3259 45.0018 27.19C45.0018 27.0541 44.9741 26.9195 44.9204 26.7947C44.8666 26.6698 44.788 26.5572 44.6892 26.4638C43.1042 24.9675 40.4792 24 38.0017 24C36.2221 24.0016 34.4825 24.5291 33.0017 25.5163C31.2744 24.358 29.1974 23.8378 27.128 24.0451C25.0586 24.2525 23.1262 25.1745 21.663 26.6525C20.7883 27.5455 20.102 28.6052 19.6448 29.7686C19.1876 30.932 18.969 32.1754 19.0017 33.425C19.0508 35.5342 19.5198 37.6124 20.3813 39.5383C21.2428 41.4641 22.4796 43.1989 24.0192 44.6413C24.9465 45.5173 26.1748 46.0037 27.4505 46H38.4105C39.0925 46.0013 39.7675 45.8625 40.3936 45.5922C41.0197 45.3219 41.5837 44.9259 42.0505 44.4288C42.9152 43.4981 43.6633 42.4655 44.278 41.3538C45.1555 39.75 45.043 39.5 44.9142 39.1988ZM40.5855 43.0663C40.3063 43.3627 39.9692 43.5985 39.595 43.7592C39.2209 43.9198 38.8177 44.0018 38.4105 44H27.4505C26.6865 44.0025 25.9507 43.7111 25.3955 43.1863C24.0481 41.9248 22.9656 40.4074 22.2112 38.7228C21.4568 37.0383 21.0456 35.2203 21.0017 33.375C20.9744 32.3946 21.1446 31.4187 21.5021 30.5054C21.8597 29.5921 22.3973 28.76 23.083 28.0588C23.7236 27.4042 24.489 26.8848 25.3339 26.5312C26.1787 26.1776 27.0859 25.997 28.0017 26H28.0992C29.6571 26.0164 31.1639 26.5572 32.3767 27.535C32.5541 27.677 32.7745 27.7544 33.0017 27.7544C33.2289 27.7544 33.4494 27.677 33.6267 27.535C34.8653 26.5357 36.4103 25.9937 38.0017 26C39.5908 26.0184 41.1455 26.4654 42.5017 27.2938C40.8767 29.1088 40.0017 31.1025 40.0017 33C40.0017 35.9713 40.9567 38.3413 42.7742 39.9125C42.2024 41.0649 41.465 42.1274 40.5855 43.0663ZM33.0305 21.75C33.3078 20.6759 33.9345 19.7245 34.8118 19.0456C35.6892 18.3667 36.7674 17.9989 37.8767 18H38.0017C38.267 18 38.5213 18.1054 38.7088 18.2929C38.8964 18.4804 39.0017 18.7348 39.0017 19C39.0017 19.2652 38.8964 19.5196 38.7088 19.7071C38.5213 19.8946 38.267 20 38.0017 20H37.8767C37.2116 19.9999 36.5653 20.2209 36.0395 20.6282C35.5136 21.0355 35.138 21.606 34.9717 22.25C34.9054 22.5069 34.7398 22.727 34.5112 22.8618C34.2827 22.9966 34.0099 23.0351 33.753 22.9688C33.4961 22.9024 33.276 22.7368 33.1412 22.5082C33.0064 22.2797 32.9679 22.0069 33.0342 21.75H33.0305Z" fill="#7A5AF8"/>
</svg>
