<svg width="100" height="100" viewBox="0 0 100 100" fill="none" xmlns="http://www.w3.org/2000/svg">
<rect width="100" height="100" rx="50" fill="#464646"/>
<path d="M68.4913 81.5736L62.1877 76.3347L57.9238 83.3334L51.3599 43.9373L61.9273 42.1758L68.4913 81.5736Z" fill="#ED1C24"/>
<path d="M30.2021 79.6009L37.0107 75.0378L40.532 82.4376L51.11 43.9232L40.7801 41.0865L30.2021 79.6009Z" fill="#ED1C24"/>
<path d="M34.4712 64.0585C37.2006 66.4993 40.5055 68.3084 44.1535 69.2534L51.1099 43.9232L40.78 41.0864L34.4712 64.0585Z" fill="#ED1C24"/>
<path d="M61.9273 42.1758L51.3599 43.9356L55.5886 69.3185C59.3563 68.3894 62.7667 66.5416 65.5683 64.0286L61.9273 42.1758Z" fill="#ED1C24"/>
<path d="M65.0017 61.6719C73.2869 53.3867 73.2869 39.9537 65.0017 31.6684C56.7165 23.3832 43.2835 23.3832 34.9983 31.6685C26.7131 39.9537 26.7131 53.3867 34.9983 61.6719C43.2835 69.9571 56.7165 69.9571 65.0017 61.6719Z" fill="#FFCF03"/>
<path d="M64.6496 31.3215C68.2853 35.1296 70.5167 40.2893 70.5167 45.9681C70.5167 57.6846 61.0175 67.1839 49.3009 67.1839C43.6203 67.1839 38.4624 64.9507 34.6543 61.3168C38.517 65.3643 43.9653 67.8843 50.0013 67.8843C61.7178 67.8843 71.2171 58.385 71.2171 46.6684C71.2189 40.6324 68.6971 35.1859 64.6496 31.3215Z" fill="#FFA506"/>
<path d="M63.0676 46.6685C63.0676 48.0235 61.8727 49.1744 61.475 50.3957C61.0632 51.6627 61.3395 53.2923 60.5722 54.3481C59.7962 55.4128 58.1561 55.6504 57.0914 56.4264C56.0373 57.1937 55.3088 58.686 54.0417 59.0977C52.8187 59.4955 51.3581 58.7282 50.003 58.7282C48.648 58.7282 47.1874 59.4937 45.9644 59.0977C44.6973 58.686 43.9688 57.1954 42.9147 56.4264C41.85 55.6504 40.2081 55.4145 39.4338 54.3481C38.6666 53.294 38.9429 51.6645 38.5311 50.3957C38.1334 49.1726 36.9385 48.0235 36.9385 46.6685C36.9385 45.3134 38.1334 44.1643 38.5311 42.9413C38.9429 41.6742 38.6666 40.0447 39.4338 38.9888C40.2099 37.9242 41.85 37.6866 42.9147 36.9105C43.9688 36.1433 44.6973 34.651 45.9644 34.2392C47.1874 33.8415 48.648 34.607 50.003 34.607C51.3581 34.607 52.8187 33.8415 54.0417 34.2392C55.3088 34.651 56.0373 36.1415 57.0914 36.9105C58.1561 37.6866 59.7979 37.9224 60.5722 38.9888C61.3395 40.0447 61.0632 41.6742 61.475 42.9413C61.8727 44.1643 63.0676 45.3134 63.0676 46.6685Z" fill="#FFEC03"/>
<path d="M51.8649 58.0472C50.2424 57.69 49.7655 57.69 48.143 58.0472C47.5676 58.1739 46.7809 58.364 46.2583 58.195C45.3344 57.8959 44.597 56.4775 43.4726 55.6592C42.3428 54.8374 40.7625 54.5629 40.1994 53.7903C39.645 53.0283 39.8668 51.4428 39.4321 50.1036C39.2438 49.5264 38.9359 49.0037 38.6367 48.5004C37.6371 46.8163 37.6389 46.5207 38.6367 44.8384C38.9359 44.3333 39.2456 43.8106 39.4321 43.2352C39.8668 41.8978 39.645 40.3104 40.1994 39.5485C40.7625 38.7742 42.3393 38.5032 43.4726 37.6796C44.597 36.8613 45.3326 35.4447 46.2583 35.1437C46.7827 34.973 47.564 35.1649 48.143 35.2916C49.7655 35.6488 50.2424 35.6488 51.8649 35.2916C52.4421 35.1649 53.227 34.973 53.7496 35.1437C54.6735 35.4429 55.4109 36.8613 56.5353 37.6796C57.6739 38.5084 59.2437 38.7724 59.8085 39.5485C60.3629 40.3087 60.1411 41.896 60.5758 43.2352C60.7641 43.8124 61.072 44.3351 61.373 44.8384C62.3725 46.5225 62.3708 46.8163 61.373 48.5004C60.5723 49.8502 60.4245 50.2725 60.2626 51.9249C60.076 53.8308 59.9405 54.0314 58.1631 54.8057C57.6123 55.045 57.0439 55.2932 56.5371 55.661C55.4144 56.4793 54.6753 57.8976 53.7514 58.1968C53.6071 58.2408 52.4597 58.1792 51.8649 58.0472Z" fill="#FFDC01"/>
<path d="M60.2414 46.6685C60.2414 52.3227 55.6571 56.9069 50.003 56.9069C44.3488 56.9069 39.7646 52.3227 39.7646 46.6685C39.7646 41.0144 44.3488 36.4302 50.003 36.4302C55.6571 36.4319 60.2414 41.0161 60.2414 46.6685Z" fill="#FFEC03"/>
<path d="M46.779 60.8364C47.629 61.5051 47.856 62.6173 47.856 62.6173C47.856 62.6173 46.7033 62.6437 45.8533 61.975C45.0034 61.3063 44.7764 60.1941 44.7764 60.1941C44.7764 60.1941 45.929 60.1677 46.779 60.8364Z" fill="#FFAA2E"/>
<path d="M45.7495 62.5751C46.7772 62.2179 47.8559 62.6173 47.8559 62.6173C47.8559 62.6173 47.2699 63.594 46.2422 63.9512C45.2145 64.3085 44.1357 63.909 44.1357 63.909C44.1357 63.909 44.7235 62.9323 45.7495 62.5751Z" fill="#FFAA2E"/>
<path d="M43.458 59.9371C44.2059 60.7149 44.2763 61.8465 44.2763 61.8465C44.2763 61.8465 43.1307 61.7162 42.3828 60.9384C41.6348 60.1606 41.5645 59.0291 41.5645 59.0291C41.5645 59.0291 42.7101 59.1593 43.458 59.9371Z" fill="#FFAA2E"/>
<path d="M42.196 61.5192C43.2625 61.3045 44.2761 61.8465 44.2761 61.8465C44.2761 61.8465 43.5599 62.7352 42.4917 62.9481C41.4253 63.1628 40.4116 62.6208 40.4116 62.6208C40.4116 62.6208 41.1296 61.7339 42.196 61.5192Z" fill="#FFAA2E"/>
<path d="M40.8448 58.6437C41.459 59.5289 41.3446 60.6569 41.3446 60.6569C41.3446 60.6569 40.2342 60.3507 39.62 59.4655C39.0059 58.5804 39.1202 57.4523 39.1202 57.4523C39.1202 57.4523 40.2307 57.7585 40.8448 58.6437Z" fill="#FFAA2E"/>
<path d="M39.3455 60.0111C40.4331 59.9653 41.3464 60.6569 41.3464 60.6569C41.3464 60.6569 40.4964 61.4224 39.4071 61.4664C38.3178 61.5104 37.4062 60.8206 37.4062 60.8206C37.4062 60.8206 38.2562 60.0568 39.3455 60.0111Z" fill="#FFAA2E"/>
<path d="M38.404 56.6763C38.7806 57.6811 38.3935 58.7493 38.3935 58.7493C38.3935 58.7493 37.3922 58.1879 37.0156 57.1831C36.6372 56.1783 37.0261 55.1101 37.0261 55.1101C37.0261 55.1101 38.0274 55.6697 38.404 56.6763Z" fill="#FFAA2E"/>
<path d="M36.6106 57.6424C37.677 57.8588 38.3915 58.7475 38.3915 58.7475C38.3915 58.7475 37.3779 59.286 36.3115 59.0713C35.245 58.8549 34.5288 57.9662 34.5288 57.9662C34.5288 57.9662 35.5442 57.4277 36.6106 57.6424Z" fill="#FFAA2E"/>
<path d="M36.5578 54.3939C36.6845 55.4585 36.0527 56.4053 36.0527 56.4053C36.0527 56.4053 35.2133 55.6275 35.0866 54.5628C34.9599 53.4981 35.5934 52.5514 35.5934 52.5514C35.5934 52.5514 36.4311 53.331 36.5578 54.3939Z" fill="#FFAA2E"/>
<path d="M34.5852 54.92C35.5707 55.3758 36.0529 56.407 36.0529 56.407C36.0529 56.407 34.939 56.6956 33.9535 56.2398C32.968 55.7841 32.4858 54.7528 32.4858 54.7528C32.4858 54.7528 33.5998 54.4642 34.5852 54.92Z" fill="#FFAA2E"/>
<path d="M34.9831 51.5236C34.8934 52.5918 34.0804 53.396 34.0804 53.396C34.0804 53.396 33.4152 52.4704 33.5067 51.4022C33.5982 50.334 34.4095 49.5298 34.4095 49.5298C34.4095 49.5298 35.0747 50.4554 34.9831 51.5236Z" fill="#FFAA2E"/>
<path d="M32.9437 51.6521C33.8165 52.2926 34.0822 53.396 34.0822 53.396C34.0822 53.396 32.9313 53.4611 32.0585 52.8206C31.1856 52.18 30.9199 51.0766 30.9199 51.0766C30.9199 51.0766 32.0708 51.0115 32.9437 51.6521Z" fill="#FFAA2E"/>
<path d="M34.1716 48.7854C33.9112 49.8255 32.9785 50.4942 32.9785 50.4942C32.9785 50.4942 32.4717 49.4753 32.7321 48.4352C32.9926 47.3952 33.9235 46.7265 33.9235 46.7265C33.9235 46.7265 34.4321 47.7454 34.1716 48.7854Z" fill="#FFAA2E"/>
<path d="M32.1358 48.5954C32.8943 49.3644 32.9787 50.4942 32.9787 50.4942C32.9787 50.4942 31.8331 50.3798 31.0729 49.6108C30.3127 48.8418 30.23 47.712 30.23 47.712C30.23 47.712 31.3756 47.8281 32.1358 48.5954Z" fill="#FFAA2E"/>
<path d="M34.0822 45.7357C33.5719 46.6825 32.5037 47.1083 32.5037 47.1083C32.5037 47.1083 32.2626 45.9997 32.7729 45.0529C33.2833 44.1062 34.3514 43.6803 34.3514 43.6803C34.3514 43.6803 34.5925 44.789 34.0822 45.7357Z" fill="#FFAA2E"/>
<path d="M32.1551 45.0635C32.7024 45.9909 32.5053 47.1084 32.5053 47.1084C32.5053 47.1084 31.4213 46.723 30.874 45.7974C30.3267 44.8717 30.5238 43.7543 30.5238 43.7543C30.5238 43.7543 31.6078 44.1379 32.1551 45.0635Z" fill="#FFAA2E"/>
<path d="M34.626 42.6561C33.9045 43.4586 32.7642 43.6258 32.7642 43.6258C32.7642 43.6258 32.7941 42.4925 33.5173 41.69C34.2389 40.8876 35.3792 40.7204 35.3792 40.7204C35.3792 40.7204 35.3493 41.8537 34.626 42.6561Z" fill="#FFAA2E"/>
<path d="M32.9134 41.5581C33.2232 42.5858 32.7656 43.6258 32.7656 43.6258C32.7656 43.6258 31.803 43.0011 31.4933 41.9734C31.1836 40.9457 31.6411 39.9056 31.6411 39.9056C31.6411 39.9056 32.602 40.5304 32.9134 41.5581Z" fill="#FFAA2E"/>
<path d="M35.7414 40.1239C34.8528 40.7433 33.7036 40.65 33.7036 40.65C33.7036 40.65 33.9958 39.5537 34.8844 38.9342C35.7731 38.3148 36.9222 38.4081 36.9222 38.4081C36.9222 38.4081 36.6301 39.5044 35.7414 40.1239Z" fill="#FFAA2E"/>
<path d="M34.3266 38.6703C34.3917 39.7403 33.7036 40.6501 33.7036 40.6501C33.7036 40.6501 32.9117 39.8265 32.8466 38.7565C32.7815 37.6866 33.4696 36.7768 33.4696 36.7768C33.4696 36.7768 34.2633 37.6004 34.3266 38.6703Z" fill="#FFAA2E"/>
<path d="M37.1354 37.8344C36.1588 38.3078 35.0396 38.0368 35.0396 38.0368C35.0396 38.0368 35.5041 36.9985 36.4826 36.5269C37.4592 36.0535 38.5785 36.3245 38.5785 36.3245C38.5785 36.3245 38.1121 37.361 37.1354 37.8344Z" fill="#FFAA2E"/>
<path d="M35.9719 36.1785C35.8628 37.2449 35.0375 38.0368 35.0375 38.0368C35.0375 38.0368 34.3881 37.1006 34.4972 36.0342C34.6063 34.9678 35.4317 34.1758 35.4317 34.1758C35.4317 34.1758 36.081 35.112 35.9719 36.1785Z" fill="#FFAA2E"/>
<path d="M52.6849 60.6921C51.8349 61.3609 51.6079 62.473 51.6079 62.473C51.6079 62.473 52.7606 62.4994 53.6105 61.8307C54.4605 61.162 54.6875 60.0498 54.6875 60.0498C54.6875 60.0498 53.5349 60.0234 52.6849 60.6921Z" fill="#FFAA2E"/>
<path d="M53.7144 62.4326C52.6867 62.0753 51.6079 62.4748 51.6079 62.4748C51.6079 62.4748 52.1939 63.4515 53.2216 63.8087C54.2493 64.1659 55.3281 63.7665 55.3281 63.7665C55.3281 63.7665 54.7403 62.788 53.7144 62.4326Z" fill="#FFAA2E"/>
<path d="M55.5849 59.9372C54.8352 60.715 54.7666 61.8466 54.7666 61.8466C54.7666 61.8466 55.9122 61.7164 56.6601 60.9385C57.4098 60.1607 57.4784 59.0292 57.4784 59.0292C57.4784 59.0292 56.3328 59.1594 55.5849 59.9372Z" fill="#FFAA2E"/>
<path d="M56.8466 61.5192C55.7802 61.3045 54.7666 61.8466 54.7666 61.8466C54.7666 61.8466 55.4828 62.7352 56.551 62.9482C57.6174 63.1629 58.6311 62.6209 58.6311 62.6209C58.6311 62.6209 57.9131 61.7339 56.8466 61.5192Z" fill="#FFAA2E"/>
<path d="M58.1928 58.5364C57.5786 59.4216 57.693 60.5496 57.693 60.5496C57.693 60.5496 58.8034 60.2434 59.4176 59.3582C60.0317 58.473 59.9174 57.345 59.9174 57.345C59.9174 57.345 58.8069 57.6512 58.1928 58.5364Z" fill="#FFAA2E"/>
<path d="M59.6937 59.902C58.6062 59.8563 57.6929 60.5478 57.6929 60.5478C57.6929 60.5478 58.5428 61.3134 59.6321 61.3574C60.7214 61.4013 61.633 60.7115 61.633 60.7115C61.633 60.7115 60.7813 59.9478 59.6937 59.902Z" fill="#FFAA2E"/>
<path d="M60.5512 56.6183C60.1729 57.6231 60.5618 58.6913 60.5618 58.6913C60.5618 58.6913 61.5631 58.1299 61.9397 57.1251C62.318 56.1203 61.9291 55.0521 61.9291 55.0521C61.9291 55.0521 60.9296 55.6134 60.5512 56.6183Z" fill="#FFAA2E"/>
<path d="M62.3442 57.5861C61.2778 57.8026 60.5615 58.6913 60.5615 58.6913C60.5615 58.6913 61.5752 59.2298 62.6416 59.0151C63.708 58.7986 64.4242 57.9099 64.4242 57.9099C64.4242 57.9099 63.4106 57.3697 62.3442 57.5861Z" fill="#FFAA2E"/>
<path d="M62.4973 54.1862C62.3706 55.2509 63.0023 56.1977 63.0023 56.1977C63.0023 56.1977 63.8417 55.4198 63.9684 54.3552C64.0951 53.2905 63.4616 52.3438 63.4616 52.3438C63.4616 52.3438 62.624 53.1216 62.4973 54.1862Z" fill="#FFAA2E"/>
<path d="M64.4716 54.7107C63.4861 55.1664 63.0039 56.1977 63.0039 56.1977C63.0039 56.1977 64.1179 56.4863 65.1033 56.0305C66.0888 55.5747 66.571 54.5435 66.571 54.5435C66.571 54.5435 65.457 54.2549 64.4716 54.7107Z" fill="#FFAA2E"/>
<path d="M63.8944 51.4709C63.9859 52.539 64.7972 53.3433 64.7972 53.3433C64.7972 53.3433 65.4623 52.4176 65.3708 51.3495C65.2811 50.2813 64.4681 49.4771 64.4681 49.4771C64.4681 49.4771 63.8029 50.4027 63.8944 51.4709Z" fill="#FFAA2E"/>
<path d="M65.934 51.5993C65.0611 52.2398 64.7954 53.3432 64.7954 53.3432C64.7954 53.3432 65.9463 53.4083 66.8191 52.7678C67.692 52.1272 67.9577 51.0238 67.9577 51.0238C67.9577 51.0238 66.8068 50.9587 65.934 51.5993Z" fill="#FFAA2E"/>
<path d="M64.7072 48.7273C64.9677 49.7674 65.9004 50.4361 65.9004 50.4361C65.9004 50.4361 66.4072 49.4172 66.1467 48.3772C65.8863 47.3371 64.9554 46.6684 64.9554 46.6684C64.9554 46.6684 64.445 47.6873 64.7072 48.7273Z" fill="#FFAA2E"/>
<path d="M66.7418 48.5373C65.9834 49.3063 65.8989 50.4361 65.8989 50.4361C65.8989 50.4361 67.0445 50.3217 67.8048 49.5527C68.565 48.7837 68.6477 47.6539 68.6477 47.6539C68.6477 47.6539 67.5021 47.7683 66.7418 48.5373Z" fill="#FFAA2E"/>
<path d="M64.7812 45.778C65.2916 46.7247 66.3597 47.1506 66.3597 47.1506C66.3597 47.1506 66.6008 46.0419 66.0905 45.0952C65.5802 44.1484 64.512 43.7225 64.512 43.7225C64.512 43.7225 64.2709 44.8312 64.7812 45.778Z" fill="#FFAA2E"/>
<path d="M66.7085 45.1075C66.1612 46.0331 66.3583 47.1506 66.3583 47.1506C66.3583 47.1506 67.4423 46.7652 67.9896 45.8395C68.5369 44.9121 68.3398 43.7947 68.3398 43.7947C68.3398 43.7947 67.2558 44.1818 66.7085 45.1075Z" fill="#FFAA2E"/>
<path d="M64.2112 42.6984C64.9327 43.5008 66.073 43.668 66.073 43.668C66.073 43.668 66.0431 42.5347 65.3198 41.7323C64.5983 40.9298 63.458 40.7626 63.458 40.7626C63.458 40.7626 63.4879 41.8959 64.2112 42.6984Z" fill="#FFAA2E"/>
<path d="M65.9235 41.6003C65.6138 42.628 66.0713 43.668 66.0713 43.668C66.0713 43.668 67.0321 43.0433 67.3436 42.0156C67.6533 40.9879 67.1958 39.9479 67.1958 39.9479C67.1958 39.9479 66.235 40.5726 65.9235 41.6003Z" fill="#FFAA2E"/>
<path d="M63.1271 40.2083C64.0158 40.8278 65.1649 40.7345 65.1649 40.7345C65.1649 40.7345 64.8728 39.6382 63.9841 39.0187C63.0954 38.3993 61.9463 38.4925 61.9463 38.4925C61.9463 38.4925 62.2384 39.5889 63.1271 40.2083Z" fill="#FFAA2E"/>
<path d="M64.5419 38.7548C64.4768 39.8247 65.1649 40.7345 65.1649 40.7345C65.1649 40.7345 65.9568 39.911 66.0219 38.841C66.087 37.7711 65.399 36.8613 65.399 36.8613C65.399 36.8613 64.6053 37.6866 64.5419 38.7548Z" fill="#FFAA2E"/>
<path d="M61.6527 37.9365C62.6294 38.4098 63.7486 38.1388 63.7486 38.1388C63.7486 38.1388 63.284 37.1006 62.3073 36.629C61.3306 36.1556 60.2114 36.4266 60.2114 36.4266C60.2114 36.4266 60.676 37.4631 61.6527 37.9365Z" fill="#FFAA2E"/>
<path d="M62.8137 36.2806C62.9228 37.347 63.7482 38.1389 63.7482 38.1389C63.7482 38.1389 64.3975 37.2027 64.2884 36.1363C64.1793 35.0698 63.3557 34.278 63.3557 34.278C63.3557 34.278 62.7064 35.2142 62.8137 36.2806Z" fill="#FFAA2E"/>
<path d="M60.8659 34.6668C60.8219 34.7126 60.7708 34.7583 60.7128 34.8023C60.6952 34.8146 60.6776 34.8234 60.66 34.8357C64.0757 37.7429 66.2244 41.9523 66.2244 46.6262C66.2244 55.3793 58.6838 62.5012 49.415 62.5012C40.1463 62.5012 32.6057 55.3793 32.6057 46.6262C32.6057 42.1599 34.5696 38.1195 37.7249 35.2317C37.6351 35.2053 37.5454 35.1701 37.4539 35.1243C34.2968 38.0526 32.3364 42.1265 32.3364 46.6262C32.3364 55.5201 39.9985 62.7563 49.4168 62.7563C58.8351 62.7563 66.4972 55.5201 66.4972 46.6262C66.4972 41.8872 64.3221 37.6197 60.8659 34.6668Z" fill="#FF9912"/>
<path d="M39.3985 35.809C38.3338 36.0342 37.3149 35.5045 37.3149 35.5045C37.3149 35.5045 38.0224 34.6088 39.087 34.3835C40.1517 34.1583 41.1706 34.688 41.1706 34.688C41.1706 34.688 40.4632 35.5819 39.3985 35.809Z" fill="#FFAA2E"/>
<path d="M38.6785 33.9242C38.3107 34.9326 37.3147 35.5027 37.3147 35.5027C37.3147 35.5027 36.9152 34.438 37.2848 33.4297C37.6526 32.4213 38.6486 31.8494 38.6486 31.8494C38.6486 31.8494 39.0463 32.9159 38.6785 33.9242Z" fill="#FFAA2E"/>
<path d="M59.5055 35.809C60.5701 36.0342 61.5891 35.5045 61.5891 35.5045C61.5891 35.5045 60.8816 34.6088 59.817 34.3835C58.7523 34.1583 57.7334 34.688 57.7334 34.688C57.7334 34.688 58.4408 35.5819 59.5055 35.809Z" fill="#FFAA2E"/>
<path d="M60.2254 33.9242C60.5932 34.9326 61.5892 35.5027 61.5892 35.5027C61.5892 35.5027 61.9887 34.438 61.6191 33.4297C61.2513 32.4213 60.2553 31.8494 60.2553 31.8494C60.2553 31.8494 59.8576 32.9159 60.2254 33.9242Z" fill="#FFAA2E"/>
<path d="M45.9958 32.3686L44.544 31.9515L43.2154 32.6765L43.1643 31.1649L42.0645 30.1266L43.4864 29.611L44.1339 28.2437L45.0631 29.4368L46.5642 29.6304L45.7177 30.8833L45.9958 32.3686Z" fill="#FFEC03"/>
<path d="M55.6625 32.4971L56.912 33.347L57.1126 31.8495L58.3075 30.9238L56.9437 30.2692L56.4333 28.8473L55.3898 29.9419L53.8799 29.9876L54.5979 31.318L54.1755 32.7698L55.6625 32.4971Z" fill="#FFEC03"/>
<path d="M51.4247 32.1609L50.0521 31.5274L48.6302 32.0395L48.8097 30.5384L47.8823 29.3453L49.3658 29.0514L50.214 27.8002L50.9514 29.12L52.4049 29.5406L51.3772 30.6493L51.4247 32.1609Z" fill="#FFEC03"/>
</svg>
