<svg width="100" height="100" viewBox="0 0 100 100" fill="none" xmlns="http://www.w3.org/2000/svg">
<rect width="100" height="100" rx="50" fill="#464646"/>
<path d="M50.9455 40.9305H49.0532V52.4539H50.9455V40.9305Z" fill="#FFB10F"/>
<path d="M53.0275 53.7771H46.9722C46.9722 53.0459 47.5656 52.4525 48.2968 52.4525H51.7029C52.4341 52.4525 53.0275 53.0459 53.0275 53.7771Z" fill="#FFDC01"/>
<path d="M63.3971 78.2635H36.6021L38.1159 55.088H62.0346L63.3971 78.2635Z" fill="#893003"/>
<path d="M62.0344 55.088H38.1157L38.0264 56.4611C43.7139 58.6562 52.8923 63.2597 56.3711 71.0288C57.7442 74.0958 58.7509 76.4529 59.4896 78.2635H63.3969L62.0344 55.088Z" fill="#7A2B03"/>
<path d="M62.3373 53.7771H37.6616V55.0881H62.3373V53.7771Z" fill="#FFB10F"/>
<path d="M65.8571 81.9225H34.1421V79.4746C34.1421 78.8055 34.684 78.2635 35.3532 78.2635H64.646C65.3152 78.2635 65.8571 78.8055 65.8571 79.4746V81.9225Z" fill="#FFB10F"/>
<path d="M64.6463 78.2635H59.4614C60.1305 78.2635 60.6725 78.8055 60.6725 79.4746V81.9225H65.8574V79.4746C65.8574 78.807 65.3139 78.2635 64.6463 78.2635Z" fill="#FFA30F"/>
<path d="M67.4468 81.8952H32.5527V83.3334H67.4468V81.8952Z" fill="#D67205"/>
<path d="M67.4468 82.8867H32.5527V83.3318H67.4468V82.8867Z" fill="#BD6504"/>
<path d="M49.0532 43.5889L50.1311 43.1362L50.9455 43.4617V40.9305H49.0532V43.5889Z" fill="#E09C0D"/>
<path d="M59.4614 45.245L50.1179 41.4998L40.8381 45.4025L41.5132 35.3581L34.9341 27.7405L44.6938 25.2789L49.906 16.6667L55.265 25.1881L65.0656 27.4846L58.6151 35.2143L59.4614 45.245Z" fill="#FFDC01"/>
<path d="M42.3091 44.7833C47.6075 38.9353 51.103 29.5253 51.2832 18.8572L49.9056 16.6667L44.6934 25.2789L34.9321 27.7405L41.5113 35.3581L40.8361 45.4025L42.3091 44.7833Z" fill="#FFDC01"/>
<path d="M49.8786 38.9217L45.5899 32.9421C45.5414 32.8754 45.5581 32.7816 45.6247 32.7347C45.6913 32.6862 45.7852 32.7029 45.8321 32.7695L50.1208 38.7492C50.1693 38.8158 50.1541 38.9096 50.086 38.9566C50.0194 39.0035 49.9255 38.9883 49.8786 38.9217Z" fill="#FFF8A4"/>
<path d="M54.3715 41.0199L44.8343 28.29C44.7844 28.2249 44.798 28.131 44.8646 28.0811C44.9297 28.0311 45.0235 28.0447 45.0735 28.1114L54.6107 40.8413C54.6607 40.9064 54.647 41.0002 54.5804 41.0502C54.5153 41.0986 54.4215 41.085 54.3715 41.0199Z" fill="#FFF8A4"/>
<path d="M57.4344 42.346L47.7322 28.5881C47.6853 28.5215 47.7004 28.4277 47.7685 28.3808C47.8351 28.3323 47.929 28.349 47.9759 28.4171L57.6781 42.1749C57.7251 42.2415 57.7099 42.3354 57.6418 42.3823C57.5752 42.4292 57.4829 42.4126 57.4344 42.346Z" fill="#FFF8A4"/>
<path d="M54.7472 34.0759L48.162 24.69C48.115 24.6219 48.1317 24.5296 48.1983 24.4826C48.2664 24.4357 48.3588 24.4524 48.4057 24.519L54.9909 33.9048C55.0378 33.9729 55.0212 34.0653 54.9546 34.1122C54.888 34.1591 54.7941 34.1425 54.7472 34.0759Z" fill="#FFF8A4"/>
<path d="M54.3673 29.1907L51.983 25.6331C51.9376 25.565 51.9557 25.4727 52.0239 25.4257C52.092 25.3803 52.1843 25.3985 52.2313 25.4666L54.6156 29.0241C54.661 29.0923 54.6428 29.1846 54.5747 29.2315C54.5051 29.2785 54.4127 29.2588 54.3673 29.1907Z" fill="#FFF8A4"/>
<path d="M56.5727 67.6771H45.1417C45.1417 68.0949 44.8026 68.434 44.3848 68.434V73.955C44.8026 73.955 45.1417 74.2941 45.1417 74.712H56.5727C56.5727 74.2941 56.9118 73.955 57.3297 73.955V68.434C56.9118 68.434 56.5727 68.0949 56.5727 67.6771Z" fill="#FFCC00"/>
<path d="M45.1436 67.6771C45.1436 67.6968 45.1436 67.7165 45.1421 67.7362L50.6752 74.712H51.4488L45.8687 67.6771H45.1436Z" fill="#F9C569"/>
<path d="M44.3862 68.434V68.8125L49.0655 74.7134H49.4516L44.468 68.431C44.4422 68.4325 44.415 68.434 44.3862 68.434Z" fill="#F9C569"/>
<path d="M47.3022 67.6771L52.8808 74.712H53.2683L47.6883 67.6771H47.3022Z" fill="#F9C569"/>
<path d="M48.7842 67.6771L54.3627 74.712H54.9425L49.3625 67.6771H48.7842Z" fill="#F9C569"/>
<path d="M58.4272 79.2535H54.9424C54.7425 79.2535 54.7425 78.9507 54.9424 78.9507H58.4272C58.5105 78.9507 58.5786 79.0188 58.5786 79.1021C58.5786 79.1853 58.5105 79.2535 58.4272 79.2535Z" fill="#F9C569"/>
<path d="M53.3467 79.2535H50.2841C50.0843 79.2535 50.0843 78.9507 50.2841 78.9507H53.3467C53.4299 78.9507 53.498 79.0188 53.498 79.1021C53.498 79.1853 53.4299 79.2535 53.3467 79.2535Z" fill="#F9C569"/>
<path d="M48.7842 79.2536H35.5683C35.3685 79.2536 35.3685 78.9508 35.5683 78.9508H48.7842C48.8674 78.9508 48.9356 79.0189 48.9356 79.1022C48.9356 79.1855 48.8674 79.2536 48.7842 79.2536Z" fill="#F9C569"/>
</svg>
