<svg width="100" height="100" viewBox="0 0 100 100" fill="none" xmlns="http://www.w3.org/2000/svg">
<rect width="100" height="100" rx="50" fill="#464646"/>
<path d="M69.2145 39.0114C69.2145 39.0114 71.9582 50.9724 69.2145 58.8158C66.4708 66.6592 59.9972 73.5416 59.9972 73.5416H51.7618C51.766 73.5416 45.8825 48.6164 69.2145 39.0114Z" fill="#FFB10F"/>
<path d="M51.7656 73.5416H60.0009C55.4196 60.2024 69.2183 39.0114 69.2183 39.0114C45.882 48.6164 51.7656 73.5416 51.7656 73.5416Z" fill="#F7A006"/>
<path d="M30.7858 39.0114C30.7858 39.0114 28.0421 50.9724 30.7858 58.8158C33.5295 66.6592 40.0032 73.5416 40.0032 73.5416H48.2385C48.2343 73.5416 54.1179 48.6164 30.7858 39.0114Z" fill="#FFB10F"/>
<path d="M30.7852 39.0114C30.7852 39.0114 46.7459 60.2024 40.0025 73.5416H48.2378C48.2336 73.5416 54.1172 48.6164 30.7852 39.0114Z" fill="#F7A006"/>
<path d="M60.393 60.5775C60.393 60.5775 58.0413 39.3991 49.9998 29.4021C41.9626 39.4034 39.6066 60.5775 39.6066 60.5775C34.9031 50.5763 16.6665 45.4808 16.6665 45.4808C21.5681 52.5403 27.6034 73.7144 27.6034 73.7144C33.0487 73.7144 66.9383 73.7144 72.3962 73.7144C72.3962 73.7144 78.4315 52.5361 83.3331 45.4808C83.3331 45.4808 65.0965 50.5763 60.393 60.5775Z" fill="#FFDC01"/>
<path d="M47.9434 32.3903C47.9434 32.3903 56.6212 35.6819 60.3933 60.5775C60.3933 60.5775 58.0416 39.3991 50.0001 29.4021C49.2667 30.3125 48.584 31.3155 47.9434 32.3903Z" fill="#FFB10F"/>
<path d="M40.4203 71.8473L22.4534 52.3717C21.3197 51.141 23.1784 49.4214 24.3121 50.6563C24.3374 50.6816 23.6968 49.8345 40.4203 71.8473Z" fill="#FFDC01"/>
<path d="M61.4678 71.8473L76.2104 50.7828C77.1714 49.413 79.2449 50.8628 78.284 52.2326C78.2587 52.2705 79.1312 51.2548 61.4678 71.8473Z" fill="#FFDC01"/>
<path d="M49.9998 71.2867L48.7354 36.4404C48.6764 34.822 51.2051 34.7335 51.2642 36.3561C51.2684 36.4362 51.3147 34.9695 49.9998 71.2867Z" fill="#FFDC01"/>
<path d="M72.3959 73.7144C66.9506 73.7144 33.061 73.7144 27.6031 73.7144C25.7908 75.5266 24.6023 76.5845 22.79 78.3968C22.8448 78.3968 77.15 78.3968 77.209 78.3968C75.3967 76.5845 74.2082 75.5266 72.3959 73.7144Z" fill="#FFB10F"/>
<path d="M52.8279 28.1883C51.3444 29.7519 48.8789 29.8151 47.3153 28.3316C45.7516 26.848 45.6884 24.3825 47.172 22.8189C48.6555 21.2552 51.121 21.192 52.6847 22.6756C54.2441 24.1549 54.3115 26.6246 52.8279 28.1883Z" fill="#FFDC01"/>
<path d="M53.6498 24.1296C52.7436 27.8174 47.5555 28.1503 46.2152 24.5679C45.8907 25.8829 46.2658 27.3327 47.3194 28.3315C48.8831 29.8151 51.3486 29.7476 52.8321 28.1882C53.89 27.0672 54.1555 25.4825 53.6498 24.1296Z" fill="#FFB10F"/>
<path d="M52.2335 23.5185C49.7216 22.0349 48.3645 23.451 47.1929 24.3656C48.6385 21.879 51.0872 22.1023 52.2335 23.5185Z" fill="#FFF876"/>
</svg>
