<svg width="100" height="100" viewBox="0 0 100 100" fill="none" xmlns="http://www.w3.org/2000/svg">
<rect width="100" height="100" rx="50" fill="#464646"/>
<path d="M49.8007 58.4191C50.7982 58.4191 51.3248 59.522 50.7025 60.2362L51.4588 60.2457C52.0045 59.1122 51.1352 57.8007 49.8007 57.8007C48.4872 57.8007 47.6179 59.0739 48.1214 60.2017L48.8797 60.2113C48.288 59.4952 48.8146 58.4191 49.8007 58.4191Z" fill="#E0973F"/>
<path d="M67.9637 54.649C67.4735 54.7428 71.0905 54.0497 51.4971 57.8006C51.0222 55.4877 44.8587 25.4917 44.7056 24.7468L47.0473 16.6686H56.954C56.9579 16.6878 67.958 54.6279 67.9637 54.649Z" fill="#AB322F"/>
<path d="M56.9521 16.6667H47.0453L44.7036 24.7449C44.8568 25.4897 51.0203 55.4857 51.4951 57.7987C52.9407 57.523 54.26 57.2702 55.4625 57.0385L56.9521 16.6667Z" fill="#7C1E1E"/>
<path d="M51.497 57.8006H48.5005L48.8853 55.928H51.1122L51.497 57.8006Z" fill="#750C0C"/>
<path d="M49.7681 59.407C49.4177 59.407 49.1343 59.1237 49.1343 58.7733V56.175C49.1343 55.5623 49.8255 55.5163 49.7681 55.5412C50.1185 55.5412 50.4018 55.8246 50.4018 56.175V58.7733C50.4037 59.1237 50.1185 59.407 49.7681 59.407Z" fill="#E0973F"/>
<path d="M48.5008 57.8006L32.0361 54.647L43.0458 16.6667H56.9524L48.5008 57.8006Z" fill="#FA352C"/>
<path d="M61.5072 71.5847C61.5072 78.0737 56.2475 83.3334 49.7566 83.3334C43.2656 83.3334 38.0078 78.0737 38.0078 71.5847C38.0078 65.0957 43.2676 59.834 49.7566 59.834C56.2456 59.834 61.5072 65.0957 61.5072 71.5847Z" fill="#FFEC03"/>
<path d="M60.9157 71.5847C60.9157 77.7463 55.9202 82.7418 49.7567 82.7418C43.5951 82.7418 38.5996 77.7463 38.5996 71.5847C38.5996 65.4231 43.5951 60.4257 49.7567 60.4257C55.9183 60.4257 60.9157 65.4212 60.9157 71.5847Z" fill="#FFCF03"/>
<path d="M59.9125 71.5847C59.9125 77.1929 55.365 81.7403 49.7568 81.7403C44.1486 81.7403 39.6011 77.1929 39.6011 71.5847C39.6011 65.9765 44.1486 61.429 49.7568 61.429C55.365 61.429 59.9125 65.9746 59.9125 71.5847Z" fill="#FFEC03"/>
<path d="M49.2743 81.727L39.9439 68.9654C39.7352 69.7504 39.6184 70.5737 39.605 71.422L46.8369 81.3134C47.6124 81.5451 48.4299 81.6887 49.2743 81.727Z" fill="#FFEC03"/>
<path d="M59.0264 75.7416L48.6084 61.4941C47.9708 61.565 47.3523 61.6971 46.7568 61.8809L58.0939 77.3863C58.452 76.8693 58.766 76.3198 59.0264 75.7416Z" fill="#FFEC03"/>
<path d="M59.9086 71.8145L52.6135 61.8369C51.8399 61.6109 51.0261 61.4731 50.1875 61.4386L59.5581 74.2538C59.7688 73.4726 59.8913 72.655 59.9086 71.8145Z" fill="#FFEC03"/>
<path d="M55.8514 79.707L43.8633 63.3112C42.9653 63.9526 42.1745 64.7377 41.5273 65.6299L52.9333 81.2311C53.9941 80.8826 54.9783 80.3637 55.8514 79.707Z" fill="#FFEC03"/>
<path d="M51.7098 81.5508L40.8514 66.7003C40.6771 67.0162 40.5201 67.3436 40.3804 67.6787L50.6337 81.7021C50.9975 81.6714 51.3575 81.6197 51.7098 81.5508Z" fill="#FFEC03"/>
<path d="M57.2451 78.4451L45.4887 62.3672C45.1957 62.5032 44.9085 62.6545 44.6309 62.8172L56.5577 79.1287C56.797 78.9104 57.0268 78.6826 57.2451 78.4451Z" fill="#FFEC03"/>
</svg>
