<svg width="100" height="100" viewBox="0 0 100 100" fill="none" xmlns="http://www.w3.org/2000/svg">
<rect width="100" height="100" rx="50" fill="#464646"/>
<path d="M64.0491 16.6667L57.3236 33.1448H43.3613L49.5659 16.6667H64.0491Z" fill="#AB322F"/>
<path d="M57.965 30.2881H42.8424C41.8498 30.2881 41.0449 31.093 41.0449 32.0856V41.7147H59.7624V32.0856C59.7624 31.093 58.9575 30.2881 57.965 30.2881ZM58.4317 33.8164H42.0301V33.0806C42.0301 32.2806 42.6794 31.6313 43.4794 31.6313H56.9823C57.7823 31.6313 58.4317 32.2806 58.4317 33.0806V33.8164Z" fill="#F28F0E"/>
<path d="M36.8574 16.6667L43.3608 33.1448H57.323L50.9703 16.6667H36.8574Z" fill="#FA352C"/>
<path d="M46.5932 33.1448L39.4578 16.6667H38.6504L45.7858 33.1448H46.5932Z" fill="#FCE0E0"/>
<path d="M49.6151 33.1448L42.4797 16.6667H41.6724L48.8078 33.1448H49.6151Z" fill="#FCE0E0"/>
<path d="M52.9559 33.1448L45.8205 16.6667H45.0132L52.1486 33.1448H52.9559Z" fill="#FCE0E0"/>
<path d="M55.9062 33.1448L48.7707 16.6667H47.9634L55.0988 33.1448H55.9062Z" fill="#FCE0E0"/>
<path d="M68.15 65.1835C73.1619 55.1596 69.0989 42.9707 59.075 37.9588C49.0512 32.9469 36.8622 37.0098 31.8503 47.0337C26.8384 57.0576 30.9013 69.2465 40.9252 74.2584C50.9491 79.2704 63.138 75.2074 68.15 65.1835Z" fill="#FFB10F"/>
<path d="M66.3277 44.0306C68.3745 47.1984 69.562 50.9759 69.562 55.0276C69.562 66.2344 60.4761 75.3203 49.2693 75.3203C42.5808 75.3203 36.6478 72.0859 32.9517 67.0936C36.5663 72.6884 42.8549 76.3894 50.01 76.3894C61.2168 76.3894 70.3027 67.3035 70.3027 56.0967C70.3027 51.5784 68.8263 47.4033 66.3277 44.0306Z" fill="#FF930F"/>
<path d="M64.8021 63.5096C68.8895 55.3346 65.576 45.394 57.401 41.3065C49.2261 37.219 39.2854 40.5325 35.1979 48.7075C31.1104 56.8825 34.424 66.8231 42.599 70.9106C50.7739 74.9981 60.7146 71.6845 64.8021 63.5096Z" fill="#FFDC01"/>
<path d="M47.9858 67.3577C48.6326 67.8664 48.8055 68.7132 48.8055 68.7132C48.8055 68.7132 47.929 68.733 47.2821 68.2244C46.6352 67.7157 46.4624 66.8689 46.4624 66.8689C46.4624 66.8689 47.3389 66.8491 47.9858 67.3577Z" fill="#FFF375"/>
<path d="M47.2056 68.6811C47.9858 68.4095 48.808 68.7132 48.808 68.7132C48.808 68.7132 48.3636 69.4564 47.5809 69.728C46.8007 69.9995 45.9785 69.6959 45.9785 69.6959C45.9785 69.6959 46.423 68.9527 47.2056 68.6811Z" fill="#FFF375"/>
<path d="M45.4619 66.6738C46.0322 67.2664 46.0841 68.1256 46.0841 68.1256C46.0841 68.1256 45.2125 68.0268 44.6446 67.4343C44.0743 66.8417 44.0225 65.9825 44.0225 65.9825C44.0225 65.9825 44.8915 66.0812 45.4619 66.6738Z" fill="#FFF375"/>
<path d="M44.5015 67.8787C45.3138 67.7157 46.0841 68.1281 46.0841 68.1281C46.0841 68.1281 45.5385 68.8021 44.7262 68.965C43.9139 69.128 43.1436 68.7157 43.1436 68.7157C43.1436 68.7157 43.6892 68.0416 44.5015 67.8787Z" fill="#FFF375"/>
<path d="M43.4746 65.6912C43.9412 66.3652 43.8548 67.2219 43.8548 67.2219C43.8548 67.2219 43.0104 66.9899 42.5438 66.3158C42.0771 65.6418 42.1635 64.785 42.1635 64.785C42.1635 64.785 43.0055 65.0171 43.4746 65.6912Z" fill="#FFF375"/>
<path d="M42.3314 66.7306C43.1585 66.6961 43.8548 67.222 43.8548 67.222C43.8548 67.222 43.2079 67.8047 42.3808 67.8392C41.5537 67.8738 40.8574 67.3479 40.8574 67.3479C40.8574 67.3479 41.5043 66.7652 42.3314 66.7306Z" fill="#FFF375"/>
<path d="M41.6177 64.1925C41.9041 64.9579 41.6103 65.7702 41.6103 65.7702C41.6103 65.7702 40.8498 65.343 40.5609 64.5776C40.2745 63.8122 40.5684 62.9999 40.5684 62.9999C40.5684 62.9999 41.3288 63.4295 41.6177 64.1925Z" fill="#FFF375"/>
<path d="M40.2526 64.9282C41.0649 65.0936 41.608 65.7676 41.608 65.7676C41.608 65.7676 40.8377 66.1775 40.0254 66.0145C39.2131 65.8491 38.6699 65.1751 38.6699 65.1751C38.6699 65.1751 39.4427 64.7652 40.2526 64.9282Z" fill="#FFF375"/>
<path d="M40.2127 62.4593C40.309 63.2691 39.8276 63.99 39.8276 63.99C39.8276 63.99 39.1906 63.3975 39.0943 62.5901C38.998 61.7803 39.4795 61.0593 39.4795 61.0593C39.4795 61.0593 40.1164 61.6494 40.2127 62.4593Z" fill="#FFF375"/>
<path d="M38.7117 62.8567C39.4623 63.2049 39.8277 63.9875 39.8277 63.9875C39.8277 63.9875 38.9808 64.2073 38.2303 63.8592C37.4821 63.511 37.1143 62.7284 37.1143 62.7284C37.1143 62.7284 37.9636 62.5111 38.7117 62.8567Z" fill="#FFF375"/>
<path d="M39.0156 60.2742C38.9465 61.0865 38.3292 61.6988 38.3292 61.6988C38.3292 61.6988 37.8231 60.9951 37.8922 60.1828C37.9614 59.3705 38.5786 58.7582 38.5786 58.7582C38.5786 58.7582 39.0848 59.4618 39.0156 60.2742Z" fill="#FFF375"/>
<path d="M37.4625 60.3729C38.1267 60.8593 38.3291 61.6988 38.3291 61.6988C38.3291 61.6988 37.4551 61.7482 36.7909 61.2618C36.1268 60.7754 35.9243 59.9359 35.9243 59.9359C35.9243 59.9359 36.7983 59.8865 37.4625 60.3729Z" fill="#FFF375"/>
<path d="M38.3962 58.1928C38.1987 58.9829 37.4901 59.4915 37.4901 59.4915C37.4901 59.4915 37.1049 58.7162 37.3024 57.9261C37.5024 57.1361 38.2086 56.6274 38.2086 56.6274C38.2086 56.6274 38.5962 57.4002 38.3962 58.1928Z" fill="#FFF375"/>
<path d="M36.8477 58.0471C37.4255 58.6323 37.4897 59.4915 37.4897 59.4915C37.4897 59.4915 36.6181 59.4051 36.0404 58.8199C35.4626 58.2348 35.3984 57.3755 35.3984 57.3755C35.3984 57.3755 36.27 57.462 36.8477 58.0471Z" fill="#FFF375"/>
<path d="M38.3299 55.872C37.9422 56.5929 37.1299 56.9163 37.1299 56.9163C37.1299 56.9163 36.9472 56.072 37.3349 55.3535C37.7225 54.6325 38.5348 54.3091 38.5348 54.3091C38.5348 54.3091 38.7175 55.151 38.3299 55.872Z" fill="#FFF375"/>
<path d="M36.8628 55.3609C37.2776 56.0645 37.1295 56.9164 37.1295 56.9164C37.1295 56.9164 36.3048 56.6225 35.89 55.9189C35.4752 55.2152 35.6234 54.3634 35.6234 54.3634C35.6234 54.3634 36.448 54.6572 36.8628 55.3609Z" fill="#FFF375"/>
<path d="M38.7444 53.5288C38.1962 54.1387 37.3271 54.2671 37.3271 54.2671C37.3271 54.2671 37.3494 53.4054 37.8999 52.7955C38.4481 52.1857 39.3171 52.0573 39.3171 52.0573C39.3171 52.0573 39.2925 52.919 38.7444 53.5288Z" fill="#FFF375"/>
<path d="M37.441 52.6943C37.6781 53.4745 37.3275 54.2671 37.3275 54.2671C37.3275 54.2671 36.5966 53.793 36.3596 53.0104C36.1226 52.2302 36.4732 51.4376 36.4732 51.4376C36.4732 51.4376 37.204 51.9117 37.441 52.6943Z" fill="#FFF375"/>
<path d="M39.5916 51.603C38.915 52.0746 38.041 52.003 38.041 52.003C38.041 52.003 38.2632 51.1685 38.9397 50.6969C39.6162 50.2253 40.4903 50.2969 40.4903 50.2969C40.4903 50.2969 40.2681 51.1339 39.5916 51.603Z" fill="#FFF375"/>
<path d="M38.5168 50.4994C38.5662 51.3141 38.0428 52.0055 38.0428 52.0055C38.0428 52.0055 37.4404 51.3783 37.391 50.566C37.3416 49.7513 37.865 49.0599 37.865 49.0599C37.865 49.0599 38.4675 49.6846 38.5168 50.4994Z" fill="#FFF375"/>
<path d="M40.6526 49.8624C39.9094 50.2228 39.0576 50.0154 39.0576 50.0154C39.0576 50.0154 39.4107 49.2254 40.1538 48.8674C40.897 48.5069 41.7488 48.7143 41.7488 48.7143C41.7488 48.7143 41.3958 49.5019 40.6526 49.8624Z" fill="#FFF375"/>
<path d="M39.7663 48.6032C39.6848 49.413 39.0552 50.0155 39.0552 50.0155C39.0552 50.0155 38.5614 49.3019 38.6429 48.4921C38.7243 47.6823 39.3539 47.0798 39.3539 47.0798C39.3539 47.0798 39.8502 47.7909 39.7663 48.6032Z" fill="#FFF375"/>
<path d="M52.4789 67.2491C51.832 67.7577 51.6592 68.6046 51.6592 68.6046C51.6592 68.6046 52.5357 68.6243 53.1826 68.1157C53.8294 67.6071 54.0023 66.7602 54.0023 66.7602C54.0023 66.7602 53.1258 66.7405 52.4789 67.2491Z" fill="#FFF375"/>
<path d="M53.2616 68.5724C52.4814 68.3009 51.6592 68.6045 51.6592 68.6045C51.6592 68.6045 52.1036 69.3477 52.8863 69.6193C53.6665 69.8909 54.4887 69.5872 54.4887 69.5872C54.4887 69.5872 54.0418 68.8416 53.2616 68.5724Z" fill="#FFF375"/>
<path d="M54.6842 66.6738C54.1139 67.2664 54.062 68.1256 54.062 68.1256C54.062 68.1256 54.9336 68.0268 55.5015 67.4343C56.0718 66.8417 56.1237 65.9825 56.1237 65.9825C56.1237 65.9825 55.2545 66.0812 54.6842 66.6738Z" fill="#FFF375"/>
<path d="M55.6447 67.8787C54.8323 67.7157 54.062 68.1281 54.062 68.1281C54.062 68.1281 54.6077 68.8021 55.42 68.965C56.2323 69.128 57.0026 68.7157 57.0026 68.7157C57.0026 68.7157 56.457 68.0416 55.6447 67.8787Z" fill="#FFF375"/>
<path d="M56.6693 65.6072C56.2026 66.2813 56.289 67.138 56.289 67.138C56.289 67.138 57.1334 66.9059 57.6001 66.2319C58.0667 65.5579 57.9803 64.7011 57.9803 64.7011C57.9803 64.7011 57.1359 64.9357 56.6693 65.6072Z" fill="#FFF375"/>
<path d="M57.81 66.6466C56.9829 66.612 56.2866 67.1379 56.2866 67.1379C56.2866 67.1379 56.9335 67.7206 57.7606 67.7552C58.5878 67.7897 59.284 67.2638 59.284 67.2638C59.284 67.2638 58.6371 66.6812 57.81 66.6466Z" fill="#FFF375"/>
<path d="M58.4618 64.1505C58.1754 64.9159 58.4692 65.7282 58.4692 65.7282C58.4692 65.7282 59.2297 65.301 59.5186 64.5356C59.805 63.7703 59.5111 62.9579 59.5111 62.9579C59.5111 62.9579 58.7507 63.3851 58.4618 64.1505Z" fill="#FFF375"/>
<path d="M59.8272 64.8863C59.0149 65.0517 58.4717 65.7257 58.4717 65.7257C58.4717 65.7257 59.242 66.1356 60.0543 65.9702C60.8666 65.8047 61.4098 65.1307 61.4098 65.1307C61.4098 65.1307 60.637 64.7208 59.8272 64.8863Z" fill="#FFF375"/>
<path d="M59.9434 62.2987C59.8471 63.1086 60.3285 63.8295 60.3285 63.8295C60.3285 63.8295 60.9655 63.2369 61.0643 62.4296C61.1606 61.6197 60.6792 60.8988 60.6792 60.8988C60.6792 60.8988 60.0397 61.4889 59.9434 62.2987Z" fill="#FFF375"/>
<path d="M61.4441 62.6987C60.696 63.0468 60.3281 63.8295 60.3281 63.8295C60.3281 63.8295 61.175 64.0492 61.9256 63.7011C62.6762 63.353 63.0416 62.5703 63.0416 62.5703C63.0416 62.5703 62.1922 62.3506 61.4441 62.6987Z" fill="#FFF375"/>
<path d="M61.0045 60.2347C61.0737 61.047 61.6909 61.6593 61.6909 61.6593C61.6909 61.6593 62.1971 60.9557 62.1279 60.1434C62.0588 59.3311 61.4416 58.7188 61.4416 58.7188C61.4416 58.7188 60.9354 59.4224 61.0045 60.2347Z" fill="#FFF375"/>
<path d="M62.5575 60.331C61.8934 60.8174 61.6909 61.6569 61.6909 61.6569C61.6909 61.6569 62.5649 61.7062 63.2291 61.2198C63.8933 60.7334 64.0957 59.894 64.0957 59.894C64.0957 59.894 63.2217 59.8446 62.5575 60.331Z" fill="#FFF375"/>
<path d="M61.6242 58.1484C61.8217 58.9384 62.5303 59.4471 62.5303 59.4471C62.5303 59.4471 62.9155 58.6718 62.718 57.8817C62.518 57.0916 61.8119 56.583 61.8119 56.583C61.8119 56.583 61.4242 57.3558 61.6242 58.1484Z" fill="#FFF375"/>
<path d="M63.1722 58.0027C62.5945 58.5878 62.5303 59.4471 62.5303 59.4471C62.5303 59.4471 63.4018 59.3606 63.9796 58.7755C64.5573 58.1903 64.6215 57.3311 64.6215 57.3311C64.6215 57.3311 63.75 57.4175 63.1722 58.0027Z" fill="#FFF375"/>
<path d="M61.6786 55.9041C62.0663 56.625 62.8786 56.9485 62.8786 56.9485C62.8786 56.9485 63.0612 56.104 62.6736 55.3856C62.286 54.6646 61.4737 54.3412 61.4737 54.3412C61.4737 54.3412 61.291 55.1856 61.6786 55.9041Z" fill="#FFF375"/>
<path d="M63.1454 55.3954C62.7306 56.0991 62.8788 56.9509 62.8788 56.9509C62.8788 56.9509 63.7034 56.6571 64.1182 55.9534C64.5355 55.2498 64.3848 54.3979 64.3848 54.3979C64.3848 54.3979 63.5627 54.6893 63.1454 55.3954Z" fill="#FFF375"/>
<path d="M61.2467 53.5609C61.7948 54.1708 62.6639 54.2992 62.6639 54.2992C62.6639 54.2992 62.6416 53.4375 62.091 52.8276C61.5429 52.2178 60.6738 52.0894 60.6738 52.0894C60.6738 52.0894 60.6961 52.9511 61.2467 53.5609Z" fill="#FFF375"/>
<path d="M62.55 52.7264C62.313 53.5067 62.6636 54.2992 62.6636 54.2992C62.6636 54.2992 63.3944 53.8227 63.6315 53.0425C63.8685 52.2623 63.5179 51.4697 63.5179 51.4697C63.5179 51.4697 62.7846 51.9438 62.55 52.7264Z" fill="#FFF375"/>
<path d="M60.4222 51.6672C61.0987 52.1387 61.9727 52.0671 61.9727 52.0671C61.9727 52.0671 61.7505 51.2326 61.074 50.761C60.3975 50.2895 59.5234 50.3611 59.5234 50.3611C59.5234 50.3611 59.7457 51.198 60.4222 51.6672Z" fill="#FFF375"/>
<path d="M61.4984 50.5636C61.449 51.3783 61.9725 52.0697 61.9725 52.0697C61.9725 52.0697 62.5749 51.4425 62.6243 50.6302C62.6737 49.8155 62.1502 49.1241 62.1502 49.1241C62.1502 49.1241 61.5453 49.7488 61.4984 50.5636Z" fill="#FFF375"/>
<path d="M59.2984 49.9389C60.0416 50.2994 60.8934 50.092 60.8934 50.092C60.8934 50.092 60.5403 49.3019 59.7971 48.9439C59.054 48.5834 58.2021 48.7908 58.2021 48.7908C58.2021 48.7908 58.5577 49.5784 59.2984 49.9389Z" fill="#FFF375"/>
<path d="M60.1849 48.6797C60.2663 49.4895 60.8959 50.092 60.8959 50.092C60.8959 50.092 61.3897 49.3784 61.3083 48.5686C61.2268 47.7587 60.5972 47.1563 60.5972 47.1563C60.5972 47.1563 60.1009 47.8699 60.1849 48.6797Z" fill="#FFF375"/>
<path d="M58.7016 47.4526C58.667 47.4872 58.63 47.5218 58.5855 47.5563C58.5732 47.5662 58.5584 47.5736 58.546 47.581C61.1434 49.7932 62.7779 52.9931 62.7779 56.5484C62.7779 63.2073 57.0424 68.6219 49.9909 68.6219C42.9394 68.6219 37.204 63.2049 37.204 56.5484C37.204 53.1511 38.6977 50.0772 41.0976 47.8822C41.0284 47.8625 40.9618 47.8353 40.8926 47.8008C38.4903 50.0278 36.999 53.1264 36.999 56.5484C36.999 63.3135 42.8283 68.8169 49.9909 68.8169C57.1535 68.8169 62.9828 63.3135 62.9828 56.5484C62.9853 52.9437 61.3311 49.6994 58.7016 47.4526Z" fill="#FFF375"/>
<path d="M42.3732 48.3217C41.5634 48.4921 40.7881 48.0896 40.7881 48.0896C40.7881 48.0896 41.3263 47.4082 42.1362 47.2378C42.946 47.065 43.7213 47.4699 43.7213 47.4699C43.7213 47.4699 43.183 48.1489 42.3732 48.3217Z" fill="#FFF375"/>
<path d="M41.8253 46.8872C41.5463 47.6551 40.7883 48.0896 40.7883 48.0896C40.7883 48.0896 40.4846 47.2798 40.7661 46.5144C41.0451 45.7466 41.8031 45.312 41.8031 45.312C41.8031 45.312 42.1043 46.1218 41.8253 46.8872Z" fill="#FFF375"/>
<path d="M57.6665 48.3217C58.4763 48.4921 59.2515 48.0896 59.2515 48.0896C59.2515 48.0896 58.7133 47.4082 57.9035 47.2378C57.0936 47.065 56.3184 47.4699 56.3184 47.4699C56.3184 47.4699 56.8566 48.1489 57.6665 48.3217Z" fill="#FFF375"/>
<path d="M58.2152 46.8872C58.4942 47.6551 59.2521 48.0896 59.2521 48.0896C59.2521 48.0896 59.5558 47.2798 59.2744 46.5144C58.9954 45.7466 58.2374 45.312 58.2374 45.312C58.2374 45.312 57.9362 46.1218 58.2152 46.8872Z" fill="#FFF375"/>
<path d="M49.2866 48.8378H52.1408V62.5852H48.7928V52.5437L46.2399 54.2844L44.6152 51.9043L49.2866 48.8378Z" fill="#FFF375"/>
</svg>
